<?xml version="1.0" encoding="utf-8"?>
<!-- Generator: Adobe Illustrator 25.2.1, SVG Export Plug-In . SVG Version: 6.00 Build 0)  -->
<svg version="1.1" id="Layer_1" xmlns="http://www.w3.org/2000/svg" xmlns:xlink="http://www.w3.org/1999/xlink" x="0px" y="0px"
	 viewBox="0 0 612 732" style="enable-background:new 0 0 612 732;" xml:space="preserve">
<style type="text/css">
	.st0{fill:#FFFFFF;}
	.st1{fill:#FFEC00;stroke:#000000;stroke-miterlimit:10;}
</style>
<g>
	<path d="M464.94,675.73c-4.02,2.13-8.02,3.97-12.14,5.51c-5.38,2-10.87,3.46-16.51,4.3c-0.47,0.07-0.96,0.05-1.43,0.15
		c-0.64,0.15-1.3,0.28-1.87,0.59c-6.17,3.3-12.65,5.68-19.39,7.27c-3.63,0.85-7.32,1.39-11.02,1.42
		c-7.42,0.07-14.51-1.37-20.88-5.73c-3.58-2.45-6.48-5.6-8.77-9.39c-0.29-0.47-0.59-0.94-0.93-1.49c-3.21,0.46-6.22,0.77-9.46,1.99
		c-0.28,0.11-0.59,0.17-0.89,0.17c-6.68,0.02-13.28,1.02-19.92,1.56c-2.98,0.24-5.97,0.32-8.95,0.57
		c-7.47,0.62-14.95,0.43-22.43,0.43c-6.94,0-13.88-0.04-20.82-0.14c-3.29-0.05-6.57-0.26-9.86-0.44c-3.64-0.2-7.28-0.41-10.92-0.7
		c-3.16-0.25-6.31-0.59-9.46-0.96c-5.72-0.68-11.44-1.44-17.15-2.22c-0.03,0-0.07-0.01-0.09-0.02c-1.31-0.35-2.43-0.46-3.79-0.64
		c-0.28,0.46-0.56,0.86-0.79,1.29c-3.85,7.33-9.62,12.18-17.09,14.79c-4.77,1.67-9.69,2.18-14.69,1.95
		c-8.54-0.4-16.61-2.83-24.44-6.28c-1.65-0.73-3.24-1.62-4.88-2.4c-0.43-0.21-0.89-0.4-1.36-0.45c-9.8-1.12-19.03-4.27-27.91-8.69
		c-0.54-0.27-1.08-0.53-1.66-0.81c-1.92,0.63-3.85,1.28-5.8,1.88c-4.9,1.52-9.89,2.41-14.99,2.73c-6.89,0.44-13.6-0.43-20.16-2.66
		c-7.42-2.52-13.92-6.68-19.64-12.23c-6.67-6.47-11.68-14.23-15.62-22.8c-4.03-8.78-6.72-18.03-8.54-27.57
		c-1.02-5.34-1.76-10.73-2.26-16.16c-0.54-5.81-0.81-11.63-0.76-17.47c0.04-4,0.03-7.99,0.16-11.99c0.08-2.66,0.34-5.31,0.57-7.96
		c0.24-2.78,0.51-5.55,0.79-8.32c0.55-5.42,1.35-10.8,2.27-16.17c1.8-10.48,4.15-20.83,7.01-31.05c4.62-16.5,10.48-32.5,17.56-47.99
		c4.86-10.63,10.27-20.92,16.28-30.86c6.93-11.45,14.58-22.31,23.18-32.41c7.48-8.78,15.52-16.9,24.46-24.01
		c7.2-5.73,14.81-10.73,23.06-14.6c0.76-0.36,1.53-0.72,2.29-1.08c0.05-0.02,0.08-0.08,0.2-0.2c-0.2-0.28-0.38-0.6-0.62-0.85
		c-11.83-12.58-20.54-27.32-26.93-43.67c-3.9-9.99-6.75-20.31-8.71-30.92c-1.19-6.41-2.02-12.87-2.54-19.38
		c-0.55-6.77-0.71-13.54-0.56-20.33c0.12-5.33,0.53-10.63,1.03-15.93c0.07-0.69,0.18-1.39,0.35-2.06c0.54-2.13,2.19-3.64,4.21-3.86
		c1.63-0.18,3.74,0.56,4.81,2.94c0.28,0.63,0.46,1.3,0.67,1.96c3.27,10.35,8.96,18.85,17.33,25.27c4.02,3.08,8.42,5.33,13.29,6.42
		c5.14,1.15,10.2,1.01,15.15-1.12c1.99-0.86,3.96-1.75,5.89-2.78c2.88-1.55,5.9-2.78,8.96-3.88c0.73-0.26,1.44-0.57,2.16-0.86
		c0-3.01,0-5.92,0-8.94c-0.39-0.06-0.73-0.14-1.06-0.15c-1.97-0.04-3.95-0.02-5.92-0.11c-7.23-0.34-14.24-1.86-20.97-4.65
		c-17.99-7.47-30.84-20.69-38.81-39.28c-2.74-6.38-4.47-13.09-5.48-20.02c-0.9-6.19-1-12.4-0.53-18.59
		c0.68-8.85,2.75-17.37,6.2-25.48c7.55-17.8,19.52-31.13,36.09-39.71c5.94-3.08,12.2-5.15,18.73-6.33
		c5.03-0.91,10.09-1.31,15.19-1.02c11.43,0.67,22.1,4.06,31.94,10.3c0.67,0.42,1.32,0.86,2.1,1.36c0.46-0.33,0.95-0.66,1.42-1.02
		c7.39-5.62,14.73-11.31,22.46-16.4c2.08-1.37,4.2-2.69,6.29-4.04c9.72-6.25,19.69-12.03,30-17.11c8.51-4.2,17.01-8.42,25.87-11.74
		c7.17-2.69,14.49-4.83,22.04-5.88c4.39-0.61,8.81-0.78,13.25-0.51c5.71,0.35,11.27,1.42,16.66,3.45
		c8.72,3.29,16.08,8.62,21.69,16.5c4.41,6.2,7.07,13.19,8.3,20.82c0.62,3.89,0.87,7.82,0.66,11.75c-0.31,5.65-1.24,11.2-2.87,16.6
		c-0.4,1.33-0.85,2.64-1.26,3.96c-0.11,0.35-0.16,0.71-0.23,1.08c1.39,0,2.7,0.04,4-0.01c9.31-0.33,18.37,0.98,27.07,4.63
		c6.08,2.55,11.53,6.15,16.11,11.15c5.27,5.76,8.65,12.58,9.93,20.5c1.06,6.55,0.53,13.01-1.22,19.38
		c-1.67,6.09-4.33,11.67-7.73,16.86c-4.12,6.31-9.1,11.76-14.76,16.51c-11.46,9.62-24.41,15.88-38.68,19.08
		c-3.8,0.85-7.64,1.52-11.54,1.67c-0.35,0.01-0.69,0.13-0.93,0.18c-0.14,0.14-0.19,0.18-0.23,0.23c-0.04,0.05-0.08,0.11-0.08,0.16
		c-0.07,0.44-0.15,0.87-0.18,1.31c-0.51,6.63-1.12,13.24-1.27,20c0.36,0.18,0.71,0.41,1.09,0.54c3.29,1.15,6.6,2.23,9.87,3.44
		c2.99,1.11,5.9,2.43,8.71,4c2.6,1.45,5.35,2.53,8.21,3.23c4.35,1.06,8.68,0.67,12.94-0.59c6.37-1.88,11.8-5.49,16.53-10.31
		c5.9-6,10.08-13.15,12.54-21.44c0.14-0.48,0.28-0.98,0.49-1.43c1.12-2.35,2.84-3.11,4.6-3.01c2.09,0.12,3.6,1.32,4.29,3.46
		c0.27,0.83,0.44,1.72,0.52,2.59c0.48,5.24,0.97,10.47,0.97,15.74c0,1.2,0.13,2.41,0.13,3.61c-0.04,6.59-0.27,13.17-0.89,19.74
		c-1.1,11.71-3.27,23.18-6.58,34.41c-3.02,10.26-6.98,20.1-11.99,29.46c-4.72,8.81-10.3,16.95-16.8,24.37
		c-0.61,0.7-1.27,1.34-1.89,2.03c-0.24,0.27-0.44,0.57-0.71,0.93c0.4,0.21,0.7,0.41,1.03,0.55c10.19,4.49,19.4,10.68,28.04,17.9
		c5.65,4.72,10.95,9.85,15.97,15.3c7.37,8,14.11,16.57,20.31,25.61c11.33,16.53,20.78,34.2,28.65,52.84
		c5.44,12.86,10.03,26.05,13.81,39.56c2.65,9.49,4.84,19.09,6.57,28.82c1.13,6.36,2.07,12.74,2.75,19.17
		c0.41,3.9,0.65,7.83,0.96,11.74c0.44,5.63,0.56,11.27,0.5,16.91c-0.05,4.38-0.29,8.74-0.61,13.1c-0.78,10.65-2.49,21.13-5.43,31.35
		c-2.33,8.1-5.45,15.84-9.66,23.05c-4.62,7.92-10.34,14.76-17.59,20.07c-6.96,5.1-14.65,8.22-23.05,9.39
		c-4.47,0.63-8.95,0.68-13.42,0.21c-5.61-0.59-11.08-1.94-16.42-3.86C466.16,676.18,465.6,675.97,464.94,675.73z M248.53,243.94
		c0.88-1.63,1.74-3.29,2.67-4.9c0.91-1.6,1.89-3.17,2.9-4.86c-0.69-0.28-1.24-0.5-1.79-0.73c-2.55-1.08-5.13-2.1-7.64-3.27
		c-1.91-0.9-3.6-2.21-5.12-3.8c0.19-0.23,0.31-0.5,0.4-0.49c2.38,0.27,4.74,0.61,7.12,0.86c3.69,0.39,7.38,0.76,11.1,0.65
		c0.84-0.02,1.47-0.28,2.04-0.93c4.93-5.62,10.6-10.24,16.96-13.9c6.41-3.69,13.21-6.18,20.43-7.4c2.78-0.47,5.57-0.76,8.39-0.8
		c2.51-0.04,5.02-0.01,7.52,0.28c3.35,0.39,2.67,0.6,5.04-1.8c3.34-3.38,6.26-7.15,9.13-10.98c1.6-2.14,3.11-4.34,4.34-6.75
		c0.45-0.89,0.85-1.82,1.32-2.7c0.12-0.23,0.4-0.38,0.68-0.62c0.79,1.9,0.67,3.75,0.44,5.56c-0.68,5.39-2.35,10.46-4.53,15.36
		c-0.76,1.71-1.63,3.36-2.51,5.15c16.35,6.36,28.17,18.03,35.85,34.53c1.33-0.17,2.56-0.38,3.81-0.49c1.9-0.18,3.82-0.47,5.72-0.39
		c2.98,0.12,5.98,0.01,8.95,0.55c0.28,0.05,0.58-0.03,0.85-0.05c0.45-0.69,0.3-1.4,0.33-2.09c0.09-2.03,0.16-4.05,0.29-6.08
		c0.14-2.09,0.34-4.17,0.51-6.25c0.25-3.09,0.47-6.19,0.78-9.28c0.11-1.06,0.33-2.14,0.7-3.13c0.75-2,2.19-3.12,4.25-3.26
		c0.36-0.03,0.72,0.01,1.08-0.02c2.92-0.22,5.86-0.31,8.76-0.7c6.31-0.85,12.44-2.54,18.37-4.98c9.75-4.01,18.59-9.57,26.22-17.22
		c4.42-4.44,8.24-9.37,11.15-15.04c3.2-6.23,5.1-12.82,4.84-20.01c-0.13-3.73-0.9-7.28-2.36-10.66
		c-2.61-6.04-6.85-10.49-12.16-13.84c-6.66-4.21-13.98-6.13-21.64-6.77c-2.5-0.21-5.01-0.24-7.53-0.16
		c-3.77,0.13-7.5,0.59-11.25,1.31c-0.36,0.5-0.71,1.01-1.09,1.49c-2.36,3.04-4.56,6.22-7.11,9.06c-4.66,5.2-9.72,9.95-15.2,14.19
		c-1.3,1.01-2.71,1.86-4.07,2.78c-0.19,0.13-0.41,0.29-0.69-0.06c0.28-0.44,0.54-0.94,0.87-1.37c2.67-3.51,5.21-7.11,7.64-10.8
		c2.43-3.69,4.94-7.32,7.28-11.08c1.91-3.07,3.6-6.28,5.42-9.42c4.74-8.18,7.66-17.01,8.48-26.59c0.41-4.84,0.19-9.63-0.89-14.35
		c-2.25-9.85-7.47-17.45-15.63-22.74c-6.09-3.96-12.81-5.89-19.87-6.48c-3.94-0.33-7.88-0.27-11.82,0.2
		c-4.83,0.58-9.55,1.63-14.19,3.17c-1.37,0.45-2.7,1.07-4.1,1.39c-1.83,0.42-3.54,1.15-5.27,1.84c-5.32,2.11-10.5,4.58-15.68,7.04
		c-7.43,3.51-14.71,7.35-21.9,11.37c-3.22,1.8-6.33,3.83-9.5,5.75c-6.49,3.94-12.92,7.99-19.04,12.55
		c-5.43,4.05-10.78,8.21-16.17,12.33c-0.82,0.63-1.65,1.26-2.5,1.85c-0.65,0.45-1.34,0.83-2.14,0.87c-1.8-1.14-3.63-2.23-5.38-3.43
		c-9.64-6.63-20.25-9.86-31.69-10.07c-4.01-0.07-8.01,0.37-11.94,1.21c-13.31,2.86-24.67,9.55-33.88,20.09
		c-11.2,12.81-17.2,28.01-17.81,45.54c-0.18,5.15,0.12,10.26,1.06,15.32c2.67,14.48,9.01,26.78,19.39,36.65
		c8.16,7.76,17.68,12.65,28.46,14.81c2.47,0.49,4.97,0.73,7.48,0.94c2.21,0.18,4.42,0.21,6.63,0c1.43-0.14,2.86-0.27,4.29-0.33
		c2.19-0.09,3.77,0.97,4.8,3.01c0.7,1.38,0.96,2.84,0.94,4.4c-0.04,2.73-0.06,5.45-0.06,8.18c0,0.41,0.11,0.82,0.18,1.35
		c4.74-1.14,9.43-1.56,14.15-1.85C239.12,242.33,243.77,243.04,248.53,243.94z M231.39,456.91c-0.25,0.66-0.16,1.36-0.15,2.04
		c0.04,6.66,0.1,13.32,0.13,19.98c0.02,3.11,0,6.22,0,9.32c0,2.98,0,5.96,0.01,8.95c0,0.49-0.1,1.03,0.37,1.45
		c2.39,0.26,4.83,0.55,7.26,0.78c3.99,0.38,7.98,0.72,11.97,1.06c1.67,0.14,2.95,0.97,3.84,2.46c0.35,0.59,0.57,1.25,0.89,1.86
		c0.72,1.38,1.41,2.8,2.23,4.11c0.9,1.44,2.11,2.59,3.51,3.48c2.91,1.84,6.01,1.94,9.18,0.99c3.1-0.93,5.8-2.68,8.24-4.88
		c1.09-0.99,2.11-2.06,3.15-3.11c1.41-1.42,3.03-1.96,4.94-1.4c0.52,0.15,1.04,0.31,1.57,0.36c5,0.52,10,1.02,15,1.53
		c5,0.5,10,1.01,15,1.51c5.12,0.51,10.24,1.03,15.36,1.53c5.83,0.57,11.67,1.1,17.51,1.68c5.59,0.56,11.18,1.18,16.78,1.74
		c4.52,0.46,9.05,0.85,13.58,1.31c5.59,0.56,11.19,1.17,16.78,1.74c6.55,0.66,13.09,1.33,19.64,1.94c2.16,0.2,3.82,1.4,5.35,2.82
		c0.55,0.51,0.86,1.36,1.14,2.11c0.34,0.89,0.39,1.85,0.33,2.81c-0.08,1.26-0.17,2.53-0.21,3.8c-0.2,5.76-0.38,11.53-0.58,17.29
		c-0.07,2.15-0.19,4.3-0.26,6.46c-0.03,0.74-0.09,1.5,0.09,2.2c2.91,0.41,8.22-0.02,10.42-0.85c-0.07-1.04-0.15-2.11-0.22-3.18
		c-0.11-1.64-0.24-3.28-0.33-4.93c-0.04-0.7,0.04-1.4-0.03-2.09c-0.3-3.16-0.22-6.33-0.19-9.5c0.04-4.44,0.15-8.87,0.21-13.31
		c0.04-2.79,0.07-5.58,0.08-8.37c0.01-4.38,0.24-8.74,0.51-13.11c0.27-4.43,0.6-8.85,0.88-13.28c0.28-4.36,0.49-8.73,0.82-13.09
		c0.23-3.09,0.56-6.18,0.95-9.26c0.32-2.45,0.85-4.86,1.21-7.3c0.89-5.96,2.26-11.8,4.03-17.53c0.39-1.26,0.95-2.46,1.46-3.68
		c0.12-0.28,0.3-0.55,0.5-0.77c0.1-0.12,0.33-0.2,0.47-0.17c0.14,0.03,0.26,0.22,0.34,0.37c0.06,0.1,0.05,0.25,0.05,0.37
		c0.02,4.32-0.3,8.62-0.61,12.91c-0.22,2.97-0.61,5.92-0.86,8.89c-0.32,3.72-0.62,7.45-0.85,11.18c-0.24,3.98-0.4,7.97-0.58,11.96
		c-0.18,4.05-0.33,8.11-0.53,12.16c-0.17,3.48-0.41,6.96-0.6,10.44c-0.03,0.53,0.03,1.07,0.05,1.81c0.52-0.61,0.62-1.16,0.81-1.68
		c1.81-5.12,4.1-10,6.87-14.62c2.35-3.91,4.8-7.74,8-10.96c1.26-1.26,2.54-2.51,3.83-3.73c0.23-0.22,0.51-0.57,0.93-0.29
		c0.23,0.74-0.15,1.37-0.4,1.98c-1.44,3.41-2.9,6.82-4.38,10.21c-3.24,7.42-6.44,14.85-8.94,22.61c-3.05,9.49-5.01,19.17-5.34,29.2
		c-0.1,3.04-0.21,6.08-0.28,9.12c-0.04,1.9-0.02,3.8,0,5.71c0,0.36,0.11,0.71,0.2,1.2c1.79-0.26,3.49-0.55,5.21-0.75
		c1.71-0.21,3.46-0.09,5.16-0.65c0.2-0.63,0.4-1.22,0.59-1.82c1.24-3.84,2.56-7.65,4.21-11.31c1.83-4.08,4.04-7.92,6.58-11.54
		c1.11-1.58,2.16-3.19,3.26-4.78c0.49-0.71,1-1.43,1.98-1.68c0.11,0.29,0.29,0.57,0.29,0.85c0,0.5-0.05,1.02-0.17,1.5
		c-0.53,2.28-1.06,4.55-1.65,6.81c-0.47,1.83-1.1,3.62-1.52,5.47c-0.89,3.88-1.7,7.78-2.52,11.68c-0.09,0.42-0.07,0.86-0.11,1.44
		c0.61-0.29,1.08-0.53,1.56-0.75c1.04-0.48,2.06-1.01,3.13-1.42c5.22-2.03,10.63-2.4,16.1-1.81c6.32,0.69,12.28,2.72,17.79,6.1
		c5.04,3.09,9.42,6.97,12.46,12.33c0.49,0.87,0.94,1.76,1.35,2.67c0.07,0.16-0.06,0.53-0.21,0.66c-0.14,0.13-0.45,0.14-0.64,0.08
		c-0.28-0.1-0.52-0.31-0.77-0.48c-1.96-1.35-3.89-2.73-5.87-4.03c-3.97-2.62-8.14-4.83-12.53-6.54c-4.86-1.89-9.84-3.15-15.04-3.3
		c-3.5-0.1-6.92,0.35-10.23,1.6c-0.3,0.11-0.68,0.15-0.81,0.67c0.46,0.28,0.91,0.57,1.38,0.83c2.81,1.61,5.32,3.65,7.56,6.06
		c4.18,4.48,7.27,9.73,9.53,15.53c0.68,1.75,1.3,3.53,1.91,5.21c1.89,0.86,3.74,1.59,5.51,2.51c5.57,2.93,9.96,7.19,12.84,13.09
		c2.54,5.2,3.46,10.76,3.17,16.57c-0.27,5.44-1.55,10.63-3.52,15.64c-4.04,10.31-10.28,18.98-17.75,26.72
		c-3.99,4.13-8.29,7.86-12.87,11.24c-0.28,0.21-0.52,0.47-0.91,0.83c0.41,0.17,0.66,0.33,0.93,0.39c5.41,1.26,10.89,1.65,16.4,1.07
		c8.43-0.9,15.97-4.18,22.58-9.81c5.63-4.79,10.03-10.67,13.58-17.3c3.77-7.05,6.45-14.56,8.42-22.37
		c1.31-5.21,2.27-10.49,2.98-15.83c0.56-4.21,0.98-8.43,1.21-12.67c0.25-4.61,0.34-9.24,0.25-13.86c-0.08-3.93-0.15-7.85-0.4-11.78
		c-0.36-5.57-0.88-11.11-1.59-16.64c-1.07-8.29-2.53-16.51-4.34-24.65c-3.85-17.25-9.11-34.01-15.75-50.28
		c-6.95-17.04-15.24-33.31-25.15-48.63c-8.07-12.48-17.06-24.16-27.38-34.65c-5.32-5.4-10.94-10.43-16.96-14.95
		c-5.88-4.4-12.07-8.24-18.68-11.26c-1.86-0.85-3.8-1.52-5.69-2.32c-0.86-0.36-1.62-0.34-2.3,0.4c-0.08,0.09-0.19,0.16-0.28,0.24
		c-7.64,6.24-15.95,11.17-25.04,14.6c-4.91,1.85-9.93,3.22-15.09,4.07c-3.61,0.59-7.23,0.97-10.88,1.06
		c-0.29,0.01-0.57,0.08-0.92,0.13c-0.08,0.42-0.16,0.79-0.21,1.15c-0.52,3.63-0.9,7.29-1.58,10.89
		c-3.05,16.32-8.52,31.66-16.72,45.88c-4.83,8.38-10.48,16.06-17.3,22.73c-4.91,4.8-10.3,8.86-16.35,11.92
		c-5.53,2.8-11.38,4.19-17.46,4.62c-2.64,0.19-5.25-0.21-7.84-0.78c-5.81-1.26-11.15-3.73-16.16-7.07
		c-6.23-4.15-11.67-9.27-16.53-15.1c-0.47-0.56-0.97-1.1-1.46-1.67c-9.81,0.22-19.56,0.44-29.3,0.67
		C231.78,456.73,231.61,456.83,231.39,456.91z M221.35,497.53c0.26-0.66,0.19-1.3,0.19-1.92c-0.02-6.09-0.06-12.18-0.07-18.27
		c-0.01-7.87,0-15.73-0.01-23.6c0-1.43,0.3-2.77,0.84-4.06c0.58-1.39,1.55-2.41,2.97-2.84c0.68-0.21,1.4-0.37,2.1-0.4
		c3.05-0.11,6.1-0.18,9.15-0.24c5.5-0.11,11-0.21,16.51-0.32c0.27-0.01,0.61,0.1,0.76-0.38c-1.31-2.3-2.68-4.59-3.95-6.95
		c-1.27-2.37-2.49-4.77-3.64-7.21c-1.14-2.44-2.21-4.92-3.22-7.43c-1.01-2.51-1.95-5.05-2.81-7.61c-0.89-2.62-1.71-5.28-2.45-7.95
		c-0.72-2.61-1.36-5.26-1.93-7.91c-0.58-2.65-1.04-5.34-1.54-8.01c-0.49-2.65-0.68-5.37-1.17-8.06c-0.39-0.08-0.67-0.18-0.96-0.19
		c-2.93-0.12-5.83-0.58-8.72-1.12c-9.33-1.74-18.1-5.15-26.4-9.98c-3.94-2.29-7.68-4.91-11.28-7.77c-1.63-1.3-1.1-1.2-3.06-0.48
		c-1.92,0.7-3.8,1.54-5.65,2.41c-8.09,3.79-15.5,8.77-22.47,14.51c-9.69,7.97-18.29,17.11-26.17,27.05
		c-9.58,12.08-17.88,25.09-25.2,38.82c-9.21,17.27-16.71,35.35-22.57,54.2c-3.54,11.39-6.44,22.96-8.61,34.73
		c-1.19,6.47-2.16,12.98-2.9,19.52c-0.6,5.29-1.06,10.59-1.24,15.91c-0.16,4.56-0.11,9.13-0.15,13.69
		c-0.05,5.84,0.43,11.65,1.05,17.45c0.63,5.93,1.63,11.79,3.02,17.57c2,8.33,4.78,16.34,8.82,23.83c3.75,6.95,8.4,13.1,14.46,17.97
		c5.38,4.32,11.38,7.17,18.04,8.45c3.49,0.67,6.99,0.89,10.53,0.75c3.18-0.12,6.31-0.56,9.42-1.25c0.2-0.04,0.37-0.19,0.7-0.36
		c-0.52-0.42-0.89-0.73-1.27-1.01c-8.55-6.32-16.16-13.69-22.44-22.56c-4.59-6.49-8.3-13.49-10.42-21.33
		c-1.52-5.6-2.24-11.28-1.36-17.1c0.68-4.51,2.11-8.7,4.57-12.48c2.99-4.61,6.96-7.99,11.69-10.38c1.4-0.71,2.87-1.26,4.32-1.85
		c0.49-0.2,0.77-0.51,0.95-1.03c0.63-1.85,1.24-3.71,1.99-5.5c3.04-7.32,7.27-13.68,13.44-18.46c0.22-0.17,0.4-0.41,0.66-0.69
		c-1.08-0.72-2.17-1.06-3.23-1.43c-6.01-2.08-12.18-2.54-18.43-1.82c-6.37,0.74-12.38,2.82-18.02,6.02
		c-2.48,1.41-4.86,2.99-6.89,5.11c-1.02,1.07-2.08,2.1-3.13,3.13c-0.19,0.18-0.46,0.26-0.88,0.49c0.06-0.59,0.02-0.98,0.15-1.3
		c0.28-0.7,0.6-1.38,0.98-2.03c1.34-2.33,2.78-4.56,4.49-6.63c3.01-3.66,6.64-6.37,10.78-8.35c4.34-2.07,8.89-3.33,13.62-3.88
		c4.19-0.48,8.37-0.45,12.52,0.24c5.54,0.93,10.8,2.75,15.59,5.94c0.55,0.37,1.08,0.45,1.7,0.31c1.17-0.26,2.34-0.54,3.52-0.69
		c2.33-0.29,4.66,0.02,6.98,0.2c0.66,0.05,1.31,0.12,1.97,0.18c0.7,0.06,1.39,0.2,2.22,0.07c0-0.79,0.01-1.47,0-2.16
		c-0.02-1.14-0.08-2.28-0.06-3.42c0.06-3.42,0.11-6.85,0.22-10.27c0.17-5.13,0.37-10.26,0.59-15.39c0.12-2.72,0.39-5.44,0.46-8.16
		c0.11-4.63,0.09-9.25,0.16-13.88c0.06-4.34-0.49-8.61-1.28-12.84c-1.02-5.49-2.76-10.76-4.7-15.95c-1.72-4.6-3.99-8.94-6.29-13.24
		c-0.65-1.21-1.41-2.35-2.08-3.55c-0.19-0.34-0.54-0.73-0.1-1.28c0.29,0.11,0.65,0.18,0.93,0.37c0.84,0.6,1.73,1.16,2.47,1.89
		c4.05,3.99,7.69,8.35,10.34,13.54c1.02,2,1.89,4.1,2.84,6.15c0.15,0.32,0.18,0.75,0.73,0.86c0.16-1.64,0.29-3.26,0.31-4.9
		c0.03-2.22,0.12-4.44,0.16-6.66c0.05-2.91,0.15-5.83,0.12-8.74c-0.02-2.34-0.18-4.69-0.32-7.03c-0.11-1.77-0.2-3.55-0.44-5.3
		c-0.55-4.08-1.17-8.15-2.28-12.11c-0.07-0.26,0.01-0.56,0.03-1.09c0.41,0.34,0.67,0.49,0.85,0.72c0.59,0.79,1.23,1.57,1.72,2.43
		c1.94,3.45,3.51,7.09,4.46,10.97c1.34,5.47,2.35,11.01,2.3,16.7c0,0.38,0.04,0.76,0.04,1.14c0.03,1.77,0.13,3.55,0.07,5.32
		c-0.12,3.86-0.34,7.72-0.47,11.59c-0.18,5.58-0.29,11.15-0.49,16.73c-0.16,4.37-0.42,8.73-0.64,13.1
		c-0.17,3.35-0.37,6.71-0.55,10.06c-0.33,5.95-0.67,11.89-0.97,17.84c-0.13,2.59-0.22,5.19-0.29,7.79
		c-0.08,2.85-0.11,5.71-0.15,8.56c-0.01,0.42,0.1,0.85,0.15,1.28c0.44,0.09,0.78,0.19,1.13,0.23c2.14,0.28,4.27,0.57,6.41,0.83
		c1.96,0.24,3.92,0.47,5.89,0.65c0.57,0.05,1.2,0.22,1.76-0.3c-0.06-2.12-0.1-4.27-0.19-6.42c-0.15-3.49,1.4-5.72,4.29-6.57
		c1.35-0.4,2.48-1.26,3.38-2.41c2.26-2.9,2.64-6.16,1.55-9.65c-0.38-1.21-1.1-2.25-2.03-3.09c-0.84-0.75-1.77-1.42-2.87-1.44
		c-1.62-0.03-3.01-0.76-4.44-1.38c-1.35-0.58-2.27-1.69-2.65-3.16c-0.25-0.96-0.37-1.99-0.37-3c-0.03-6.66-0.02-13.32-0.01-19.99
		c0-0.51-0.01-1.02,0.06-1.52c0.31-2.06,1.28-2.98,3.25-3.09c0.59-0.03,1.19,0.03,1.79,0.06c0.36,0.02,0.71,0.06,1.07,0.09
		c2.26,0.18,4.53,0.33,6.79,0.55c3.16,0.3,6.31,0.64,9.46,0.96c3.15,0.32,6.31,0.63,9.46,0.95c2.92,0.29,5.83,0.6,8.75,0.89
		C220.49,497.56,220.9,497.53,221.35,497.53z M306.86,214.6c-1.53,0.12-3.55,0.25-5.57,0.46c-4.43,0.47-8.7,1.64-12.85,3.32
		c-8.06,3.28-15.02,8.3-20.97,14.92c-3.99,4.44-7.33,9.37-9.95,14.82c-4.9,10.19-7.23,21-6.78,32.47c0.16,4.2,0.65,8.33,1.58,12.41
		c2.36,10.33,6.88,19.45,13.85,27.1c8.67,9.5,19.21,15.09,31.67,16.52c5.64,0.65,11.24,0.33,16.76-0.98
		c11.55-2.75,21.31-8.87,29.27-18.11c10.17-11.79,15.41-25.78,16.13-41.69c0.21-4.57-0.16-9.11-0.94-13.62
		c-1.97-11.45-6.5-21.58-14.03-30.08C334.84,220.64,322.24,214.89,306.86,214.6z M244.66,253.66c-2.59-0.33-4.93-0.83-7.33-0.77
		c-1.55,0.04-3.1,0.22-4.66,0.22c-2.77,0-5.49,0.44-8.19,0.94c-5.55,1.03-10.88,2.93-16.14,5.05c-2.17,0.87-4.32,1.84-6.37,3.04
		c-2.57,1.5-5.34,2.57-8.14,3.47c-3.74,1.2-7.59,1.63-11.52,1.39c-3.37-0.2-6.64-0.84-9.85-1.92c-8.35-2.81-15.37-7.82-21.33-14.57
		c-1.51-1.71-2.86-3.58-4.29-5.37c-0.18-0.23-0.34-0.55-0.8-0.28c0,0.33-0.01,0.7,0,1.08c0.07,2.09,0.12,4.18,0.22,6.27
		c0.16,3.35,0.26,6.72,0.53,10.06c0.54,6.57,1.48,13.08,2.79,19.53c2.72,13.4,6.93,26.24,13.01,38.35
		c6.13,12.2,13.82,23.12,23.63,32.3c7.42,6.95,15.67,12.48,24.91,16.3c6.9,2.86,14.04,4.62,21.43,5.12c2.86,0.19,5.73,0.23,8.6,0.11
		c4.5-0.19,8.93-0.86,13.31-1.9c7.16-1.7,13.95-4.49,20.41-8.16c7.7-4.36,14.67-9.78,20.99-16.16c0.2-0.2,0.53-0.34,0.42-0.87
		c-0.18-0.03-0.39-0.08-0.6-0.12c-2.12-0.4-4.26-0.67-6.35-1.22c-16.07-4.2-28.68-13.68-37.67-28.37
		c-8.17-13.35-11.57-28.1-10.62-43.99c0.36-6.11,1.45-12.06,3.17-17.89C244.38,254.84,244.48,254.35,244.66,253.66z M463.67,243.71
		c-0.1-0.06-0.21-0.12-0.31-0.18c-0.37,0.48-0.75,0.95-1.1,1.43c-2.69,3.68-5.71,7.01-9.14,9.9c-7.53,6.34-15.92,10.44-25.67,11.05
		c-2.47,0.16-4.9-0.02-7.32-0.4c-4.49-0.7-8.62-2.52-12.65-4.64c-0.7-0.37-1.37-0.8-2.08-1.12c-3.74-1.7-7.55-3.19-11.43-4.47
		c-3.49-1.15-7.03-2-10.64-2.63c-3.2-0.56-6.43-0.61-9.65-0.77c-1.62-0.08-3.23-0.02-4.83,0.18c-0.64,0.08-1.3,0.12-1.89,0.48
		c0.03,0.24,0.04,0.43,0.09,0.6c1.66,6.26,2.6,12.62,2.69,19.13c0.06,4.33-0.19,8.62-0.84,12.88c-1.82,11.97-5.97,22.96-12.77,32.73
		c-10.36,14.9-23.99,24.51-41.2,28.21c-0.34,0.07-0.67,0.21-0.99,0.32c0.04,0.21,0.03,0.36,0.09,0.44c0.19,0.24,0.4,0.47,0.62,0.68
		c7.02,6.8,14.7,12.57,23.27,16.98c8.42,4.33,17.26,7.12,26.57,8.12c6.39,0.69,12.77,0.47,19.13-0.63
		c7.62-1.31,14.85-3.86,21.73-7.52c9.36-4.98,17.49-11.7,24.63-19.76c7.3-8.23,13.23-17.5,18.08-27.55
		c4.37-9.07,7.74-18.54,10.25-28.36c2.2-8.64,3.71-17.43,4.51-26.34c0.36-3.97,0.72-7.95,0.69-11.95c-0.01-0.69,0.13-1.39,0.14-2.08
		C463.68,246.85,463.67,245.28,463.67,243.71z M185.09,608.18c-0.32-0.05-0.44-0.09-0.55-0.09c-2.82,0.21-5.62-0.08-8.38-0.61
		c-4.9-0.94-9.62-2.55-14.15-4.74c-2.4-1.16-4.75-2.41-6.97-3.91c-0.61-0.41-1.2-0.52-1.87-0.29c-1.02,0.36-2.05,0.7-3.07,1.07
		c-3.51,1.28-6.94,2.77-10.1,4.87c-2.09,1.38-4.05,2.92-5.61,4.98c-2.17,2.87-2.65,6.01-1.46,9.46c0.6,1.74,1.5,3.31,2.55,4.78
		c2.18,3.06,4.82,5.63,7.66,7.98c4.16,3.44,8.64,6.37,13.28,9.01c9.88,5.62,20.28,9.95,30.9,13.68c9.65,3.38,19.45,6.19,29.37,8.55
		c13.25,3.16,26.61,5.57,40.11,7.19c5.88,0.71,11.77,1.3,17.68,1.71c3.52,0.25,7.04,0.43,10.57,0.58c3.29,0.13,6.57,0.24,9.86,0.25
		c2.87,0.01,5.74-0.16,8.61-0.22c2.21-0.05,4.41,0.17,6.62,0.24c4.6,0.16,9.21,0.06,13.82,0.04c1.26,0,2.51-0.03,3.77-0.1
		c3.22-0.18,6.45-0.37,9.67-0.59c2.68-0.18,5.37-0.36,8.05-0.63c3.87-0.39,7.73-0.87,11.59-1.31c6.96-0.8,13.87-1.93,20.76-3.21
		c7.95-1.47,15.85-3.21,23.68-5.26c12.43-3.25,24.67-7.14,36.58-12.16c8.12-3.43,16.04-7.29,23.49-12.18
		c4.49-2.94,8.77-6.18,12.45-10.23c1.59-1.74,3.02-3.61,4.14-5.72c0.68-1.28,1.22-2.62,1.45-4.07c0.4-2.48-0.07-4.78-1.46-6.86
		c-1.02-1.52-2.26-2.78-3.64-3.91c-2.77-2.27-5.85-3.97-9.1-5.28c-3.28-1.32-6.63-2.48-9.92-3.7c-0.15,0.07-0.27,0.1-0.37,0.16
		c-0.31,0.18-0.62,0.37-0.93,0.57c-6.83,4.25-14.11,7.18-21.95,8.4c-2.3,0.36-4.62,0.61-6.96,0.32c-0.99-0.12-1.99-0.12-3.06-0.18
		c-0.09,1.01-0.21,1.88-0.25,2.76c-0.16,4.18-0.31,8.36-0.44,12.54c-0.11,3.46-1.83,5.9-4.95,6.84c-7.87,2.37-15.76,4.7-23.63,7.09
		c-1.64,0.5-3.18,0.36-4.73-0.31c-1.39-0.61-2.43-1.59-3.02-3.08c-0.26-0.64-0.49-1.29-0.77-1.92c-1.1-2.46-2.64-4.53-4.81-6.01
		c-4.83-3.3-9.92-1.79-12.85,2.47c-1.33,1.93-2.12,4.12-2.32,6.5c-0.12,1.38-0.06,2.78-0.05,4.18c0.03,3.02-1.26,4.92-4.01,5.72
		c-1.15,0.33-2.34,0.52-3.52,0.71c-4.49,0.72-8.98,1.43-13.48,2.12c-4.5,0.69-9,1.35-13.49,2.04c-7.04,1.09-14.07,2.2-21.11,3.29
		c-8.04,1.25-16.08,2.51-24.13,3.71c-3.05,0.45-3.19,0.89-6.77-0.84c-0.05-0.03-0.11-0.05-0.17-0.07
		c-9.19-3.78-18.38-7.56-27.57-11.35c-15.54-6.4-31.08-12.8-46.62-19.2c-4.85-2-9.68-4.02-14.55-5.97c-1.72-0.69-2.79-1.91-3.3-3.72
		c-0.17-0.6-0.16-1.25-0.22-1.88c-0.06-0.69-0.11-1.39-0.16-2.08C185.2,609.64,185.15,608.95,185.09,608.18z M392.71,625.26
		c3.32-0.83,6.45-1.87,9.61-2.8c3.15-0.93,6.32-1.8,9.45-2.87c0.11-1.69,0.26-3.27,0.32-4.84c0.12-3.1,0.19-6.21,0.29-9.31
		c0.15-4.37,0.32-8.74,0.48-13.11c0.08-2.22,0.16-4.43,0.23-6.65c0.17-5.2,0.34-10.39,0.5-15.59c0.04-1.33,0.04-2.66,0.1-3.99
		c0.15-3.42,0.34-6.83,0.47-10.25c0.16-4.24,0.28-8.49,0.42-12.73c0.14-4.37,0.29-8.74,0.42-13.11c0.01-0.34-0.11-0.69-0.18-1.07
		c-3.49,0.51-6.86,0.98-10.23,1.49c-4.08,0.61-8.16,1.26-12.24,1.87c-4.44,0.67-8.88,1.31-13.31,1.98
		c-3.85,0.58-7.69,1.19-11.53,1.77c-2.96,0.45-5.92,0.86-8.88,1.3c-4.73,0.71-9.47,1.42-14.19,2.16c-0.86,0.14-1.78,0.13-2.54,0.62
		c-0.06,0.26-0.12,0.44-0.14,0.63c-0.35,3.97-1.45,7.7-3.23,11.2c-2.14,4.22-5.02,7.73-8.99,10.12c-3.84,2.32-7.92,3.14-12.25,1.83
		c-3.68-1.12-6.44-3.54-8.52-6.88c-1.84-2.97-2.83-6.27-3.2-9.79c-0.06-0.55,0.02-1.15-0.39-1.63c-0.41,0-0.84-0.05-1.24,0.01
		c-6.04,0.9-12.07,1.8-18.11,2.72c-0.57,0.09-1.13,0.29-1.72,0.44c-0.24,1.11-0.15,2.13-0.13,3.13c0.02,0.99-0.21,2.02,0.23,2.98
		c0.67,0.2,1.3,0.38,1.93,0.58c1.96,0.64,3.77,1.59,5.43,2.87c5.77,4.47,7.24,12.05,4.34,18.48c-2.02,4.48-5.33,7.57-9.45,9.78
		c-0.64,0.34-1.29,0.65-1.99,1c0,0.79-0.02,1.54,0,2.3c0.04,1.2,0.14,2.41,0.15,3.61c0.06,7.55,0.1,15.1,0.14,22.65
		c0,0.19-0.01,0.38,0,0.57c0.34,3.99,0.23,7.98,0.28,11.98c0.06,5.01,0.14,10.02,0.23,15.03c0.01,0.36,0.11,0.72,0.18,1.18
		c23.02-3.55,45.96-7.1,68.81-10.62c0.14-0.24,0.23-0.35,0.25-0.46c0.08-0.44,0.13-0.88,0.19-1.32c0.65-5.17,2.44-9.83,5.91-13.58
		c4.98-5.37,10.98-7.47,18.01-5.74c3.89,0.96,7.16,3.1,9.97,6.1C390.18,621,391.48,622.97,392.71,625.26z M236.31,528.57
		c-0.18,0.52-0.35,1.05-0.53,1.58c-0.58,1.76-1.41,3.36-2.59,4.74c-2.9,3.39-6.93,4.09-10.65,2.55c-1.29-0.53-2.46-1.31-3.49-2.29
		c-3.68-3.51-5.6-7.98-6.25-13.12c-0.19-1.5-0.21-3.01-0.32-4.61c-0.51-0.25-1.04-0.52-1.59-0.78c-2.63-1.22-5.26-2.44-7.89-3.65
		c-4.11-1.9-8.21-3.81-12.33-5.69c-0.45-0.2-0.89-0.66-1.47-0.34c0,1.56-0.04,3.08,0.01,4.59c0.05,1.5-0.22,3.02,0.2,4.49
		c0.52,0.19,0.96,0.37,1.41,0.53c3.48,1.22,6.22,3.5,8.24,6.7c2.83,4.49,3.7,9.43,2.69,14.71c-1.08,5.63-3.88,10.02-8.57,13
		c-0.25,0.16-0.48,0.35-0.77,0.56c0.85,19.26,1.71,38.49,2.56,57.77c0.66,0.31,1.24,0.62,1.84,0.87c7.74,3.19,15.49,6.37,23.23,9.57
		c14.09,5.81,28.18,11.62,42.27,17.43c5.24,2.16,10.47,4.32,15.71,6.46c0.41,0.17,0.84,0.53,1.38,0.15
		c0.02-0.48,0.07-0.98,0.06-1.48c-0.06-2.53-0.19-5.07-0.21-7.6c-0.04-5.83-0.07-11.66-0.25-17.5c-0.21-6.78-0.11-13.57-0.19-20.36
		c-0.03-2.85-0.17-5.7-0.26-8.55c0-0.12-0.09-0.23-0.15-0.41c-0.69-0.26-1.42-0.53-2.15-0.79c-2.63-0.93-5.06-2.27-7.3-3.99
		c-2.46-1.88-4.51-4.15-6.04-6.94c-1.16-2.12-1.91-4.39-2.01-6.83c-0.19-4.88,1.73-8.73,5.4-11.6c3.12-2.44,6.7-3.56,10.54-3.81
		c0.4-0.03,0.79-0.1,1.24-0.15c0.22-2.07,0.03-4-0.08-5.86C276.73,547.06,238.12,529.16,236.31,528.57z M148.51,589.25
		c-0.27-0.53-0.43-0.87-0.61-1.2c-1.01-1.88-1.83-3.86-2.46-5.91c-0.39-1.26-0.61-2.58-0.86-3.88c-0.07-0.36-0.01-0.75,0.03-1.13
		c0.03-0.29,0.47-0.54,0.7-0.37c0.49,0.35,0.97,0.73,1.4,1.16c2.04,2.05,4.05,4.13,6.1,6.18c5.69,5.67,12.37,9.49,19.81,11.89
		c3.56,1.15,7.19,1.94,10.94,1.8c0.38-0.01,0.77-0.16,1.13-0.24c-0.05-1.4-0.09-2.67-0.14-3.93c-0.07-1.84-0.14-3.67-0.22-5.51
		c-0.19-4.18-0.38-8.36-0.58-12.53c-0.13-2.79-0.27-5.57-0.42-8.35c-0.01-0.23-0.15-0.46-0.24-0.71c-1.3-0.09-2.55-0.14-3.8-0.28
		c-4.1-0.47-8.2-0.96-12.29-1.46c-0.71-0.09-1.42-0.21-2.13-0.32c-1.48-0.21-2.95-0.46-4.44-0.62c-2.38-0.26-4.76-0.49-7.14-0.67
		c-1.78-0.13-3.57-0.27-5.36,0.15c-3.73,0.88-6.87,2.88-9.6,5.64c-3.43,3.47-5.89,7.64-7.78,12.21c-1.09,2.62-1.89,5.34-2.47,8.13
		c-0.3,1.46-1.04,2.36-2.44,2.68c-0.93,0.21-1.85,0.51-2.76,0.81c-2.47,0.8-4.83,1.85-6.99,3.38c-3.73,2.64-6.28,6.2-7.49,10.79
		c-1.06,4-0.95,8.02-0.21,12.05c0.9,4.91,2.69,9.46,4.99,13.79c3.27,6.19,7.43,11.67,12.16,16.65c5.85,6.15,12.38,11.37,19.54,15.7
		c2.02,1.22,4.08,2.38,6.19,3.42c2.54,1.26,5.12,2.46,7.75,3.5c7.1,2.82,14.41,4.61,22.02,4.82c4.64,0.13,9.2-0.34,13.62-1.91
		c2.74-0.98,5.29-2.36,7.51-4.35c0.23-0.21,0.46-0.42,0.24-0.82c-0.55-0.16-1.12-0.34-1.69-0.51c-11.61-3.32-23.02-7.27-34.12-12.22
		c-8.28-3.69-16.32-7.89-23.83-13.15c-4.26-2.98-8.27-6.28-11.79-10.21c-2.7-3.01-5.01-6.31-6.56-10.15
		c-1.68-4.14-2.18-8.42-1.12-12.83c0.72-3,2.1-5.65,3.95-8.03c1.92-2.47,4.21-4.5,6.73-6.24c3.93-2.72,8.16-4.77,12.58-6.4
		C147.01,589.84,147.68,589.57,148.51,589.25z M461.28,588.48c0.11,0.18,0.13,0.26,0.17,0.28c0.5,0.2,1,0.41,1.51,0.58
		c4.18,1.38,8.21,3.11,12.07,5.31c3.44,1.97,6.63,4.32,9.24,7.44c5.4,6.46,6.65,13.71,3.51,21.71c-1.18,3.01-2.9,5.68-4.89,8.16
		c-3.32,4.13-7.22,7.58-11.39,10.69c-5.69,4.24-11.77,7.76-18.04,10.92c-10.11,5.1-20.59,9.19-31.29,12.65
		c-3.83,1.24-7.7,2.33-11.54,3.53c-0.45,0.14-1.08,0.07-1.36,0.75c0.28,0.23,0.5,0.44,0.75,0.6c0.45,0.31,0.91,0.6,1.38,0.88
		c3.95,2.31,8.25,3.34,12.7,3.69c3.16,0.24,6.32,0.15,9.49-0.19c4.9-0.53,9.66-1.71,14.34-3.29c5.77-1.95,11.25-4.61,16.52-7.76
		c10.43-6.24,19.53-14.16,26.94-24.17c3.71-5.02,6.78-10.43,8.83-16.46c1.44-4.22,2.25-8.54,2.06-13.04
		c-0.22-5.22-1.93-9.76-5.52-13.42c-1.56-1.6-3.36-2.85-5.31-3.85c-2-1.02-4.09-1.76-6.24-2.36c-2.75-0.77-2.86-0.9-3.54-3.82
		c-0.23-0.98-0.47-1.97-0.73-2.94c-0.15-0.55-0.33-1.08-0.52-1.62c-1.02-2.85-2.21-5.62-3.73-8.21c-2.28-3.86-5.04-7.24-8.71-9.7
		c-3.12-2.08-6.48-3.28-10.2-2.88c-4.46,0.47-8.93,0.71-13.37,1.45c-4.07,0.68-8.18,1.08-12.28,1.53c-1.9,0.21-3.81,0.3-5.72,0.39
		c-0.95,0.05-1.84,0.33-2.8,0.52c-0.09,1.24-0.21,2.37-0.24,3.51c-0.16,4.88-0.29,9.75-0.46,14.63c-0.06,1.84-0.19,3.67-0.25,5.5
		c-0.07,1.96-0.11,3.93-0.14,5.89c0,0.35,0.14,0.7,0.22,1.05c0.69,0.04,1.29,0.03,1.88,0.13c2.83,0.46,5.63,0.11,8.37-0.52
		c8.56-1.97,16.31-5.71,22.94-11.9c2.43-2.27,4.79-4.59,7.05-7.04c0.38-0.41,0.76-0.81,1.17-1.18c0.27-0.25,0.64-0.48,0.96-0.19
		c0.2,0.18,0.36,0.56,0.33,0.82c-0.09,0.88-0.22,1.76-0.42,2.62c-0.69,2.91-1.83,5.62-3.23,8.22
		C461.6,587.79,461.43,588.17,461.28,588.48z M362.87,382.94c-0.46-0.11-0.8-0.24-1.14-0.28c-3.1-0.35-6.14-0.99-9.18-1.71
		c-0.33-0.08-0.66-0.1-1.08-0.17c-0.17,0.73-0.33,1.33-0.45,1.94c-0.93,4.59-1.96,9.14-3.17,13.66c-1.58,5.86-3.48,11.6-5.73,17.2
		c-1.81,4.49-3.92,8.83-6.34,13c-3.18,5.48-6.81,10.58-11.32,14.92c-3.44,3.31-7.24,6.01-11.57,7.86c-4.3,1.84-8.77,2.53-13.36,2.06
		c-3.78-0.39-7.35-1.64-10.74-3.49c-4.75-2.6-8.7-6.24-12.26-10.41c-3.26-3.83-6-8.06-8.43-12.52c-3.94-7.22-6.94-14.88-9.39-22.79
		c-1.85-5.97-3.29-12.05-4.55-18.18c-0.07-0.35-0.22-0.69-0.33-1.05c-3.52,0.42-6.96,0.83-10.39,1.25c-0.05,0.01-0.1,0.06-0.15,0.1
		c-0.05,0.04-0.09,0.08-0.25,0.22c0.13,1.16,0.22,2.42,0.4,3.66c0.96,6.52,2.32,12.94,4.18,19.25c3.62,12.32,8.74,23.86,15.7,34.45
		c4.16,6.33,8.89,12.11,14.47,17.07c4.01,3.57,8.36,6.54,13.19,8.74c5.75,2.61,11.64,3.11,17.74,1.8c4.15-0.89,7.98-2.65,11.61-4.9
		c5.2-3.23,9.75-7.33,13.87-11.97c5.99-6.73,10.9-14.29,15.02-22.43c6.76-13.37,11.15-27.58,13.26-42.57
		C362.68,386.15,363.01,384.65,362.87,382.94z M332.48,403.13c-0.07-0.69-0.13-1.96-0.32-3.21c-0.43-2.73-1.52-5.21-2.88-7.53
		c-5.1-8.7-12.64-13.24-22.14-14.24c-4.09-0.43-8.15,0.08-12.03,1.51c-10.97,4.05-18.13,11.92-21.03,23.95
		c-0.52,2.16-0.82,4.37-0.5,6.6c0.55,3.85,1.55,7.51,3.56,10.86c2.65,4.4,5.48,8.62,9.06,12.24c2.22,2.25,4.64,4.19,7.4,5.65
		c5.74,3.03,11.5,3.05,17.26,0.09c3.38-1.74,6.25-4.21,8.85-7.04c3.53-3.84,6.36-8.23,8.9-12.85c1.15-2.1,2.05-4.28,2.6-6.65
		C331.89,409.62,332.48,406.71,332.48,403.13z M299.85,539.97c-0.96-0.83-1.62-1.36-2.24-1.94c-1.36-1.25-2.63-2.6-3.37-4.39
		c-1.12-2.69-0.46-5.35,1.74-7.11c1.27-1.02,2.74-1.54,4.27-1.89c2.59-0.59,5.22-0.68,7.86-0.52c4.43,0.26,8.79,0.99,13.11,2.05
		c6.13,1.51,12.11,3.52,17.79,6.4c1.56,0.79,3.02,1.45,4.76,0.83c0.44-0.16,0.95-0.12,1.42-0.19c5.5-0.83,11-1.67,16.5-2.5
		c4.73-0.72,9.47-1.43,14.2-2.14c4.67-0.7,9.35-1.4,14.02-2.11c1.7-0.26,3.4-0.54,5.1-0.81c-1.65-0.4-3.3-0.56-4.95-0.72
		c-5.06-0.51-10.11-1.01-15.17-1.52c-5.06-0.51-10.11-1.02-15.17-1.53c-5.06-0.51-10.12-1.01-15.17-1.52
		c-5.12-0.51-10.23-1.04-15.35-1.55c-3.81-0.38-7.62-0.76-11.42-1.14c-2.56-0.25-5.12-0.5-7.68-0.76
		c-3.51-0.35-7.02-0.71-10.53-1.07c-1.9-0.2-3.81-0.41-5.71-0.61c-1.84-0.19-3.69-0.33-5.53-0.55c-0.91-0.11-1.61,0.15-2.25,0.85
		c-0.54,0.59-1.16,1.1-1.77,1.6c-4.12,3.38-8.61,5.92-13.83,6.83c-4.92,0.86-9.52,0.01-13.82-2.63c-3.56-2.19-6.19-5.35-8.26-9.07
		c-0.3-0.54-0.6-1.09-0.9-1.64c-14.17-1.43-28.26-2.86-42.36-4.28c-0.4-0.04-0.81-0.01-1.26-0.01c0.08,0.18,0.1,0.34,0.18,0.38
		c4.37,2.05,8.74,4.1,13.12,6.14c2.02-1.03,4.16-1.25,6.29-1.6c2.62-0.43,5.25-0.34,7.88-0.36c2.65-0.01,5.24,0.42,7.79,1.17
		c1.33,0.39,2.6,0.95,3.76,1.76c3.64,2.57,3.94,6.57,0.77,9.77c-0.28,0.28-0.76,0.41-0.75,1.07c0.44,0.23,0.91,0.49,1.39,0.71
		c5.04,2.34,10.08,4.67,15.12,7c6.96,3.22,13.92,6.43,20.86,9.68c1.02,0.48,1.99,0.64,3.11,0.45c4.55-0.74,9.11-1.37,13.67-2.05
		C297.84,540.37,298.64,540.19,299.85,539.97z M299.66,531.35c0.72,1.34,1.7,2.07,2.66,2.82c1.73,1.36,3.62,2.46,5.55,3.47
		c0.48,0.25,0.98,0.48,1.44,0.76c1.12,0.68,1.75,1.68,1.78,3.08c0.01,0.32,0,0.63,0.01,0.95c0.09,1.96,0.05,3.93,0.45,5.86
		c0.61,2.9,1.7,5.53,3.81,7.59c1.17,1.14,2.5,1.94,4.07,2.26c1.93,0.39,3.8,0.18,5.63-0.59c2.1-0.88,3.86-2.28,5.36-4.03
		c2.89-3.37,4.62-7.34,5.38-11.81c0.24-1.38-0.1-2.48-1.04-3.43c-0.97-0.97-2.07-1.73-3.29-2.27c-1.54-0.68-3.1-1.35-4.69-1.87
		c-5.08-1.67-10.24-2.95-15.55-3.55c-2.68-0.3-5.35-0.57-8.03-0.25C302.03,530.48,300.84,530.59,299.66,531.35z M278.37,559.99
		c-2.07-0.05-4.04,0.39-5.96,1.15c-1.41,0.56-2.71,1.35-3.75,2.52c-1.76,1.99-2.45,4.29-1.7,6.99c0.51,1.86,1.43,3.46,2.66,4.89
		c2.83,3.29,6.4,5.22,10.38,6.39c1.07,0.31,2.14,0.17,3.14-0.36c2.1-1.11,4.04-2.45,5.61-4.33c1.08-1.29,1.95-2.73,2.4-4.4
		c0.7-2.63,0.49-5.13-1.02-7.42c-0.77-1.16-1.74-2.09-2.9-2.78C284.48,561,281.51,560.16,278.37,559.99z M198.52,684.4
		c0.6,0.26,0.8,0.39,1.01,0.43c3.48,0.67,7,1.01,10.53,0.81c3.36-0.19,6.64-0.85,9.74-2.3c3.07-1.44,5.65-3.53,7.71-6.35
		c0.21-0.29,0.49-0.59,0.18-1.06c-4.8-1.06-9.63-2.13-14.48-3.2C209.55,678.19,204.69,681.85,198.52,684.4z M239.65,519.06
		c-0.92-0.93-1.94-1.35-2.96-1.64c-1.66-0.49-3.37-0.86-5.11-0.84c-1.73,0.02-3.47-0.03-5.18,0.17c-1.89,0.22-3.77,0.59-5.61,1.09
		c-1.79,0.49-2.48,1.6-2.23,3.53c0.45,3.54,1.72,6.71,4.3,9.13c0.53,0.49,1.15,0.92,1.8,1.22c1.72,0.79,3.31,0.34,4.46-1.23
		c0.4-0.54,0.74-1.16,0.97-1.8c0.32-0.88,0.59-1.79,0.75-2.72c0.21-1.2,0.75-2.12,1.69-2.79c0.44-0.32,0.89-0.64,1.37-0.89
		c1.01-0.53,2.05-1.01,3.08-1.52C237.88,520.31,238.86,519.97,239.65,519.06z M397.66,673.25c-0.16,0.01-0.34,0.01-0.51,0.05
		c-4.5,0.97-9,1.94-13.5,2.93c-0.19,0.04-0.35,0.24-0.63,0.43c0.53,0.59,0.95,1.12,1.42,1.59c3.28,3.29,7.25,5.06,11.63,5.86
		c4.28,0.77,8.56,0.58,12.84-0.08c0.35-0.05,0.71-0.13,1.05-0.23c0.37-0.1,0.83,0.05,1.17-0.46c-1.68-0.9-3.33-1.73-4.94-2.64
		c-1.64-0.92-3.17-2.04-4.55-3.36C400.29,676.03,399,674.63,397.66,673.25z"/>
	<path class="st0" d="M248.53,243.94c-4.76-0.9-9.41-1.61-14.16-1.32c-4.71,0.29-9.41,0.7-14.15,1.85
		c-0.08-0.53-0.18-0.94-0.18-1.35c0.01-2.73,0.02-5.45,0.06-8.18c0.02-1.55-0.24-3.02-0.94-4.4c-1.03-2.04-2.61-3.1-4.8-3.01
		c-1.43,0.06-2.86,0.19-4.29,0.33c-2.21,0.21-4.42,0.19-6.63,0c-2.5-0.21-5-0.44-7.48-0.94c-10.78-2.15-20.3-7.04-28.46-14.81
		c-10.38-9.87-16.73-22.17-19.39-36.65c-0.93-5.06-1.24-10.17-1.06-15.32c0.61-17.53,6.61-32.73,17.81-45.54
		c9.21-10.53,20.57-17.23,33.88-20.09c3.94-0.85,7.93-1.29,11.94-1.21c11.44,0.21,22.05,3.43,31.69,10.07
		c1.75,1.21,3.58,2.29,5.38,3.43c0.81-0.04,1.5-0.42,2.14-0.87c0.85-0.59,1.67-1.22,2.5-1.85c5.39-4.11,10.74-8.28,16.17-12.33
		c6.12-4.56,12.55-8.61,19.04-12.55c3.17-1.92,6.28-3.95,9.5-5.75c7.19-4.02,14.47-7.86,21.9-11.37c5.19-2.45,10.36-4.92,15.68-7.04
		c1.73-0.69,3.45-1.41,5.27-1.84c1.39-0.32,2.73-0.93,4.1-1.39c4.63-1.54,9.36-2.59,14.19-3.17c3.94-0.47,7.89-0.53,11.82-0.2
		c7.06,0.59,13.77,2.52,19.87,6.48c8.15,5.3,13.38,12.89,15.63,22.74c1.08,4.72,1.31,9.52,0.89,14.35
		c-0.82,9.58-3.74,18.41-8.48,26.59c-1.81,3.13-3.51,6.35-5.42,9.42c-2.34,3.75-4.85,7.38-7.28,11.08c-2.43,3.7-4.97,7.3-7.64,10.8
		c-0.33,0.44-0.59,0.93-0.87,1.37c0.28,0.35,0.49,0.19,0.69,0.06c1.36-0.92,2.77-1.77,4.07-2.78c5.47-4.23,10.54-8.99,15.2-14.19
		c2.55-2.84,4.76-6.03,7.11-9.06c0.38-0.49,0.73-1,1.09-1.49c3.75-0.72,7.48-1.18,11.25-1.31c2.52-0.09,5.02-0.05,7.53,0.16
		c7.66,0.63,14.98,2.56,21.64,6.77c5.32,3.36,9.55,7.81,12.16,13.84c1.46,3.38,2.23,6.93,2.36,10.66
		c0.26,7.19-1.63,13.78-4.84,20.01c-2.92,5.67-6.73,10.61-11.15,15.04c-7.63,7.65-16.47,13.21-26.22,17.22
		c-5.93,2.44-12.06,4.12-18.37,4.98c-2.9,0.39-5.84,0.48-8.76,0.7c-0.36,0.03-0.72,0-1.08,0.02c-2.06,0.14-3.5,1.26-4.25,3.26
		c-0.37,0.99-0.6,2.07-0.7,3.13c-0.31,3.09-0.52,6.18-0.78,9.28c-0.17,2.08-0.38,4.16-0.51,6.25c-0.13,2.02-0.19,4.05-0.29,6.08
		c-0.03,0.68,0.11,1.4-0.33,2.09c-0.27,0.02-0.57,0.1-0.85,0.05c-2.96-0.54-5.96-0.44-8.95-0.55c-1.9-0.07-3.81,0.22-5.72,0.39
		c-1.24,0.11-2.48,0.32-3.81,0.49c-7.67-16.5-19.5-28.17-35.85-34.53c0.88-1.79,1.75-3.44,2.51-5.15c2.17-4.9,3.85-9.97,4.53-15.36
		c0.23-1.81,0.34-3.65-0.44-5.56c-0.28,0.25-0.56,0.39-0.68,0.62c-0.47,0.88-0.87,1.81-1.32,2.7c-1.22,2.41-2.74,4.61-4.34,6.75
		c-2.86,3.83-5.79,7.6-9.13,10.98c-2.37,2.4-1.69,2.19-5.04,1.8c-2.5-0.29-5.01-0.32-7.52-0.28c-2.82,0.04-5.61,0.33-8.39,0.8
		c-7.21,1.22-14.02,3.71-20.43,7.4c-6.36,3.66-12.03,8.28-16.96,13.9c-0.57,0.65-1.2,0.9-2.04,0.93c-3.72,0.11-7.41-0.27-11.1-0.65
		c-2.38-0.25-4.75-0.59-7.12-0.86c-0.09-0.01-0.22,0.25-0.4,0.49c1.52,1.59,3.21,2.9,5.12,3.8c2.51,1.18,5.09,2.19,7.64,3.27
		c0.55,0.23,1.1,0.45,1.79,0.73c-1.01,1.69-1.99,3.25-2.9,4.86C250.27,240.65,249.41,242.31,248.53,243.94z"/>
	<path class="st0" d="M231.39,456.91c0.22-0.07,0.39-0.17,0.56-0.18c9.74-0.23,19.49-0.45,29.3-0.67c0.5,0.56,0.99,1.1,1.46,1.67
		c4.86,5.83,10.3,10.95,16.53,15.1c5,3.33,10.35,5.81,16.16,7.07c2.58,0.56,5.2,0.96,7.84,0.78c6.08-0.43,11.93-1.82,17.46-4.62
		c6.05-3.06,11.44-7.12,16.35-11.92c6.82-6.67,12.47-14.35,17.3-22.73c8.2-14.22,13.66-29.56,16.72-45.88
		c0.67-3.6,1.06-7.26,1.58-10.89c0.05-0.37,0.13-0.73,0.21-1.15c0.35-0.05,0.63-0.13,0.92-0.13c3.65-0.08,7.27-0.47,10.88-1.06
		c5.16-0.84,10.18-2.21,15.09-4.07c9.09-3.43,17.41-8.36,25.04-14.6c0.09-0.08,0.2-0.15,0.28-0.24c0.67-0.74,1.43-0.76,2.3-0.4
		c1.89,0.79,3.82,1.46,5.69,2.32c6.62,3.02,12.8,6.85,18.68,11.26c6.02,4.51,11.64,9.54,16.96,14.95
		c10.33,10.49,19.31,22.16,27.38,34.65c9.91,15.32,18.2,31.59,25.15,48.63c6.64,16.27,11.9,33.03,15.75,50.28
		c1.82,8.14,3.28,16.36,4.34,24.65c0.71,5.52,1.24,11.07,1.59,16.64c0.25,3.93,0.32,7.85,0.4,11.78c0.1,4.63,0,9.25-0.25,13.86
		c-0.23,4.24-0.65,8.46-1.21,12.67c-0.71,5.34-1.67,10.62-2.98,15.83c-1.97,7.81-4.65,15.32-8.42,22.37
		c-3.55,6.63-7.95,12.51-13.58,17.3c-6.61,5.63-14.15,8.91-22.58,9.81c-5.51,0.59-10.98,0.19-16.4-1.07
		c-0.27-0.06-0.52-0.21-0.93-0.39c0.39-0.36,0.63-0.63,0.91-0.83c4.58-3.37,8.88-7.11,12.87-11.24
		c7.47-7.74,13.71-16.42,17.75-26.72c1.97-5.01,3.25-10.2,3.52-15.64c0.29-5.81-0.63-11.37-3.17-16.57
		c-2.88-5.9-7.27-10.17-12.84-13.09c-1.76-0.93-3.61-1.66-5.51-2.51c-0.61-1.68-1.23-3.46-1.91-5.21
		c-2.27-5.8-5.35-11.05-9.53-15.53c-2.24-2.4-4.75-4.44-7.56-6.06c-0.47-0.27-0.92-0.56-1.38-0.83c0.13-0.52,0.52-0.55,0.81-0.67
		c3.31-1.26,6.73-1.7,10.23-1.6c5.2,0.15,10.18,1.4,15.04,3.3c4.39,1.71,8.56,3.93,12.53,6.54c1.98,1.3,3.91,2.69,5.87,4.03
		c0.25,0.17,0.49,0.39,0.77,0.48c0.19,0.07,0.5,0.05,0.64-0.08c0.15-0.13,0.28-0.5,0.21-0.66c-0.41-0.91-0.86-1.81-1.35-2.67
		c-3.04-5.37-7.42-9.24-12.46-12.33c-5.51-3.38-11.46-5.41-17.79-6.1c-5.47-0.6-10.88-0.23-16.1,1.81
		c-1.06,0.41-2.09,0.94-3.13,1.42c-0.48,0.22-0.95,0.46-1.56,0.75c0.04-0.58,0.02-1.03,0.11-1.44c0.82-3.9,1.63-7.8,2.52-11.68
		c0.42-1.84,1.05-3.64,1.52-5.47c0.58-2.26,1.12-4.54,1.65-6.81c0.11-0.49,0.17-1,0.17-1.5c0-0.28-0.18-0.56-0.29-0.85
		c-0.98,0.25-1.49,0.97-1.98,1.68c-1.1,1.58-2.16,3.2-3.26,4.78c-2.54,3.63-4.75,7.47-6.58,11.54c-1.65,3.67-2.96,7.48-4.21,11.31
		c-0.19,0.59-0.39,1.19-0.59,1.82c-1.7,0.56-3.45,0.45-5.16,0.65c-1.71,0.21-3.41,0.49-5.21,0.75c-0.08-0.49-0.19-0.84-0.2-1.2
		c-0.02-1.9-0.04-3.8,0-5.71c0.07-3.04,0.17-6.08,0.28-9.12c0.34-10.03,2.29-19.71,5.34-29.2c2.49-7.76,5.7-15.19,8.94-22.61
		c1.48-3.39,2.95-6.8,4.38-10.21c0.26-0.61,0.64-1.24,0.4-1.98c-0.42-0.28-0.69,0.07-0.93,0.29c-1.29,1.23-2.57,2.47-3.83,3.73
		c-3.2,3.21-5.65,7.04-8,10.96c-2.77,4.62-5.06,9.49-6.87,14.62c-0.18,0.51-0.28,1.07-0.81,1.68c-0.02-0.74-0.08-1.28-0.05-1.81
		c0.19-3.48,0.42-6.96,0.6-10.44c0.2-4.05,0.35-8.11,0.53-12.16c0.18-3.99,0.34-7.98,0.58-11.96c0.23-3.73,0.53-7.46,0.85-11.18
		c0.25-2.97,0.64-5.92,0.86-8.89c0.31-4.3,0.63-8.6,0.61-12.91c0-0.13,0.01-0.27-0.05-0.37c-0.09-0.15-0.21-0.34-0.34-0.37
		c-0.14-0.03-0.37,0.05-0.47,0.17c-0.2,0.23-0.39,0.49-0.5,0.77c-0.51,1.22-1.07,2.42-1.46,3.68c-1.78,5.73-3.14,11.57-4.03,17.53
		c-0.37,2.44-0.89,4.85-1.21,7.3c-0.4,3.08-0.72,6.17-0.95,9.26c-0.33,4.36-0.54,8.73-0.82,13.09c-0.28,4.43-0.61,8.85-0.88,13.28
		c-0.27,4.37-0.5,8.73-0.51,13.11c-0.01,2.79-0.04,5.58-0.08,8.37c-0.06,4.44-0.18,8.87-0.21,13.31c-0.03,3.17-0.11,6.34,0.19,9.5
		c0.07,0.69-0.01,1.4,0.03,2.09c0.09,1.64,0.22,3.28,0.33,4.93c0.07,1.07,0.15,2.14,0.22,3.18c-2.2,0.83-7.52,1.26-10.42,0.85
		c-0.18-0.7-0.12-1.46-0.09-2.2c0.07-2.15,0.19-4.31,0.26-6.46c0.2-5.76,0.38-11.53,0.58-17.29c0.04-1.27,0.13-2.53,0.21-3.8
		c0.06-0.96,0.01-1.92-0.33-2.81c-0.29-0.75-0.6-1.6-1.14-2.11c-1.53-1.42-3.19-2.62-5.35-2.82c-6.55-0.61-13.1-1.28-19.64-1.94
		c-5.59-0.57-11.18-1.18-16.78-1.74c-4.52-0.46-9.05-0.85-13.58-1.31c-5.59-0.56-11.18-1.18-16.78-1.74
		c-5.83-0.58-11.67-1.12-17.51-1.68c-5.12-0.5-10.24-1.02-15.36-1.53c-5-0.5-10-1-15-1.51c-5-0.5-10-1.01-15-1.53
		c-0.53-0.06-1.06-0.21-1.57-0.36c-1.91-0.56-3.53-0.02-4.94,1.4c-1.04,1.05-2.06,2.12-3.15,3.11c-2.44,2.2-5.14,3.95-8.24,4.88
		c-3.17,0.95-6.27,0.85-9.18-0.99c-1.41-0.89-2.62-2.04-3.51-3.48c-0.82-1.32-1.51-2.73-2.23-4.11c-0.32-0.61-0.54-1.28-0.89-1.86
		c-0.88-1.49-2.17-2.31-3.84-2.46c-3.99-0.35-7.98-0.69-11.97-1.06c-2.44-0.23-4.87-0.52-7.26-0.78c-0.48-0.42-0.37-0.96-0.37-1.45
		c-0.01-2.98-0.01-5.96-0.01-8.95c0-3.11,0.01-6.22,0-9.32c-0.04-6.66-0.1-13.32-0.13-19.98
		C231.23,458.27,231.14,457.56,231.39,456.91z M270.3,479.47c-0.01-4.85-1.97-10.26-6.2-13.78c-4.14-3.46-8.8-4.69-13.98-3.28
		c-6.74,1.84-11.88,8.28-12.04,16.53c-0.1,5.12,1.62,9.6,5.17,13.12c4.33,4.3,9.46,5.78,15.25,4.14
		C265.3,494.27,270.25,487.48,270.3,479.47z M355.37,461.38c-0.18,0.01-0.48,0.02-0.78,0.04c-8.1,0.5-14.98,7.16-15.32,16.98
		c-0.16,4.47,1.25,8.49,3.99,11.91c5.57,6.95,15.44,8.47,22.44,2.03c4.82-4.42,6.6-10.14,5.42-16.78
		C369.77,467.9,363.7,461.72,355.37,461.38z"/>
	<path class="st0" d="M221.35,497.53c-0.45,0-0.86,0.03-1.26-0.01c-2.92-0.29-5.83-0.6-8.75-0.89c-3.15-0.32-6.31-0.63-9.46-0.95
		c-3.15-0.32-6.31-0.67-9.46-0.96c-2.26-0.21-4.53-0.37-6.79-0.55c-0.36-0.03-0.71-0.07-1.07-0.09c-0.6-0.03-1.2-0.09-1.79-0.06
		c-1.97,0.1-2.94,1.03-3.25,3.09c-0.07,0.5-0.06,1.01-0.06,1.52c0,6.66-0.02,13.32,0.01,19.99c0,1,0.12,2.03,0.37,3
		c0.39,1.47,1.3,2.58,2.65,3.16c1.43,0.62,2.82,1.35,4.44,1.38c1.1,0.02,2.04,0.69,2.87,1.44c0.93,0.84,1.65,1.88,2.03,3.09
		c1.09,3.49,0.71,6.75-1.55,9.65c-0.9,1.15-2.03,2.01-3.38,2.41c-2.89,0.85-4.44,3.08-4.29,6.57c0.09,2.15,0.13,4.29,0.19,6.42
		c-0.56,0.52-1.19,0.35-1.76,0.3c-1.96-0.19-3.93-0.41-5.89-0.65c-2.14-0.26-4.27-0.55-6.41-0.83c-0.35-0.05-0.7-0.14-1.13-0.23
		c-0.05-0.44-0.16-0.86-0.15-1.28c0.03-2.85,0.07-5.71,0.15-8.56c0.07-2.6,0.15-5.19,0.29-7.79c0.31-5.95,0.65-11.9,0.97-17.84
		c0.18-3.35,0.38-6.71,0.55-10.06c0.23-4.37,0.48-8.73,0.64-13.1c0.2-5.57,0.31-11.15,0.49-16.73c0.13-3.86,0.35-7.72,0.47-11.59
		c0.05-1.77-0.04-3.55-0.07-5.32c-0.01-0.38-0.05-0.76-0.04-1.14c0.05-5.69-0.96-11.24-2.3-16.7c-0.95-3.88-2.52-7.52-4.46-10.97
		c-0.49-0.86-1.12-1.64-1.72-2.43c-0.17-0.23-0.44-0.38-0.85-0.72c-0.02,0.53-0.11,0.83-0.03,1.09c1.11,3.96,1.73,8.03,2.28,12.11
		c0.24,1.75,0.33,3.53,0.44,5.3c0.14,2.34,0.29,4.68,0.32,7.03c0.03,2.91-0.06,5.83-0.12,8.74c-0.04,2.22-0.12,4.44-0.16,6.66
		c-0.02,1.64-0.15,3.26-0.31,4.9c-0.55-0.11-0.58-0.53-0.73-0.86c-0.94-2.05-1.81-4.14-2.84-6.15c-2.65-5.19-6.29-9.55-10.34-13.54
		c-0.74-0.73-1.63-1.29-2.47-1.89c-0.28-0.2-0.64-0.26-0.93-0.37c-0.44,0.54-0.09,0.93,0.1,1.28c0.67,1.2,1.43,2.34,2.08,3.55
		c2.3,4.3,4.57,8.63,6.29,13.24c1.94,5.19,3.68,10.46,4.7,15.95c0.79,4.23,1.34,8.5,1.28,12.84c-0.07,4.63-0.05,9.26-0.16,13.88
		c-0.06,2.72-0.34,5.44-0.46,8.16c-0.22,5.13-0.42,10.26-0.59,15.39c-0.11,3.42-0.17,6.84-0.22,10.27
		c-0.02,1.14,0.04,2.28,0.06,3.42c0.01,0.69,0,1.37,0,2.16c-0.82,0.13-1.52-0.01-2.22-0.07c-0.66-0.05-1.31-0.12-1.97-0.18
		c-2.32-0.19-4.65-0.5-6.98-0.2c-1.18,0.15-2.35,0.42-3.52,0.69c-0.62,0.14-1.15,0.06-1.7-0.31c-4.78-3.19-10.04-5.02-15.59-5.94
		c-4.15-0.69-8.33-0.73-12.52-0.24c-4.74,0.55-9.29,1.8-13.62,3.88c-4.14,1.98-7.76,4.69-10.78,8.35c-1.7,2.07-3.15,4.3-4.49,6.63
		c-0.37,0.65-0.7,1.33-0.98,2.03c-0.13,0.32-0.09,0.71-0.15,1.3c0.42-0.23,0.69-0.31,0.88-0.49c1.06-1.03,2.11-2.06,3.13-3.13
		c2.03-2.11,4.41-3.7,6.89-5.11c5.64-3.2,11.65-5.29,18.02-6.02c6.25-0.72,12.42-0.25,18.43,1.82c1.06,0.37,2.15,0.71,3.23,1.43
		c-0.26,0.27-0.43,0.51-0.66,0.69c-6.17,4.77-10.4,11.13-13.44,18.46c-0.75,1.8-1.36,3.66-1.99,5.5c-0.18,0.53-0.45,0.83-0.95,1.03
		c-1.45,0.59-2.92,1.14-4.32,1.85c-4.73,2.39-8.7,5.77-11.69,10.38c-2.45,3.78-3.88,7.97-4.57,12.48c-0.88,5.83-0.16,11.5,1.36,17.1
		c2.13,7.85,5.83,14.84,10.42,21.33c6.27,8.86,13.89,16.23,22.44,22.56c0.38,0.28,0.75,0.59,1.27,1.01c-0.33,0.17-0.5,0.32-0.7,0.36
		c-3.11,0.69-6.24,1.13-9.42,1.25c-3.54,0.14-7.04-0.08-10.53-0.75c-6.66-1.28-12.65-4.14-18.04-8.45
		c-6.06-4.86-10.71-11.01-14.46-17.97c-4.04-7.48-6.82-15.5-8.82-23.83c-1.39-5.78-2.39-11.64-3.02-17.57
		c-0.62-5.8-1.1-11.6-1.05-17.45c0.04-4.56-0.01-9.13,0.15-13.69c0.19-5.32,0.65-10.62,1.24-15.91c0.74-6.55,1.71-13.05,2.9-19.52
		c2.17-11.77,5.07-23.34,8.61-34.73c5.86-18.84,13.36-36.92,22.57-54.2c7.32-13.73,15.62-26.74,25.2-38.82
		c7.88-9.93,16.48-19.08,26.17-27.05c6.97-5.73,14.38-10.72,22.47-14.51c1.86-0.87,3.73-1.71,5.65-2.41
		c1.96-0.71,1.43-0.81,3.06,0.48c3.6,2.86,7.34,5.47,11.28,7.77c8.29,4.83,17.06,8.24,26.4,9.98c2.89,0.54,5.78,1,8.72,1.12
		c0.29,0.01,0.57,0.11,0.96,0.19c0.49,2.7,0.67,5.41,1.17,8.06c0.5,2.67,0.96,5.36,1.54,8.01c0.58,2.65,1.21,5.3,1.93,7.91
		c0.74,2.67,1.56,5.33,2.45,7.95c0.87,2.57,1.81,5.11,2.81,7.61c1.01,2.51,2.08,4.99,3.22,7.43c1.14,2.44,2.37,4.84,3.64,7.21
		c1.27,2.36,2.64,4.66,3.95,6.95c-0.14,0.48-0.49,0.38-0.76,0.38c-5.5,0.11-11,0.2-16.51,0.32c-3.05,0.06-6.1,0.13-9.15,0.24
		c-0.71,0.03-1.42,0.19-2.1,0.4c-1.41,0.42-2.38,1.44-2.97,2.84c-0.54,1.28-0.84,2.63-0.84,4.06c0.01,7.87,0,15.73,0.01,23.6
		c0.01,6.09,0.05,12.18,0.07,18.27C221.54,496.23,221.61,496.86,221.35,497.53z"/>
	<path class="st0" d="M306.86,214.6c15.37,0.3,27.98,6.04,38.16,17.54c7.53,8.51,12.06,18.63,14.03,30.08
		c0.77,4.51,1.14,9.06,0.94,13.62c-0.72,15.91-5.96,29.9-16.13,41.69c-7.97,9.24-17.73,15.36-29.27,18.11
		c-5.52,1.31-11.11,1.63-16.76,0.98c-12.46-1.43-23-7.02-31.67-16.52c-6.97-7.64-11.5-16.77-13.85-27.1
		c-0.93-4.07-1.41-8.21-1.58-12.41c-0.45-11.48,1.88-22.28,6.78-32.47c2.62-5.45,5.96-10.39,9.95-14.82
		c5.95-6.62,12.91-11.64,20.97-14.92c4.15-1.69,8.42-2.86,12.85-3.32C303.31,214.85,305.34,214.72,306.86,214.6z"/>
	<path class="st0" d="M244.66,253.66c-0.18,0.69-0.28,1.18-0.42,1.66c-1.71,5.83-2.8,11.79-3.17,17.89
		c-0.95,15.89,2.45,30.64,10.62,43.99c8.99,14.69,21.6,24.17,37.67,28.37c2.08,0.55,4.23,0.82,6.35,1.22
		c0.21,0.04,0.43,0.08,0.6,0.12c0.11,0.52-0.22,0.66-0.42,0.87c-6.32,6.37-13.3,11.8-20.99,16.16c-6.47,3.67-13.25,6.45-20.41,8.16
		c-4.38,1.04-8.81,1.71-13.31,1.9c-2.88,0.12-5.74,0.08-8.6-0.11c-7.4-0.5-14.53-2.27-21.43-5.12c-9.24-3.83-17.49-9.36-24.91-16.3
		c-9.81-9.18-17.5-20.1-23.63-32.3c-6.08-12.11-10.29-24.95-13.01-38.35c-1.31-6.45-2.25-12.96-2.79-19.53
		c-0.28-3.34-0.38-6.71-0.53-10.06c-0.1-2.09-0.15-4.18-0.22-6.27c-0.01-0.37,0-0.75,0-1.08c0.46-0.27,0.61,0.05,0.8,0.28
		c1.43,1.79,2.78,3.66,4.29,5.37c5.95,6.74,12.98,11.75,21.33,14.57c3.2,1.08,6.48,1.72,9.85,1.92c3.93,0.23,7.78-0.19,11.52-1.39
		c2.8-0.9,5.56-1.97,8.14-3.47c2.05-1.19,4.2-2.16,6.37-3.04c5.26-2.11,10.59-4.01,16.14-5.05c2.7-0.5,5.43-0.94,8.19-0.94
		c1.55,0,3.1-0.18,4.66-0.22C239.73,252.83,242.07,253.33,244.66,253.66z"/>
	<path class="st0" d="M463.67,243.71c0,1.57,0.02,3.15-0.01,4.72c-0.01,0.7-0.15,1.39-0.14,2.08c0.03,4-0.33,7.98-0.69,11.95
		c-0.81,8.91-2.31,17.7-4.51,26.34c-2.5,9.82-5.88,19.29-10.25,28.36c-4.85,10.06-10.78,19.32-18.08,27.55
		c-7.15,8.06-15.28,14.78-24.63,19.76c-6.88,3.66-14.11,6.21-21.73,7.52c-6.36,1.1-12.74,1.32-19.13,0.63
		c-9.31-1-18.15-3.79-26.57-8.12c-8.57-4.41-16.26-10.18-23.27-16.98c-0.22-0.21-0.43-0.44-0.62-0.68
		c-0.06-0.08-0.05-0.22-0.09-0.44c0.32-0.11,0.65-0.25,0.99-0.32c17.21-3.7,30.84-13.31,41.2-28.21
		c6.8-9.78,10.95-20.76,12.77-32.73c0.65-4.26,0.89-8.56,0.84-12.88c-0.09-6.51-1.03-12.87-2.69-19.13
		c-0.05-0.18-0.06-0.37-0.09-0.6c0.59-0.36,1.25-0.39,1.89-0.48c1.6-0.21,3.21-0.26,4.83-0.18c3.22,0.16,6.45,0.22,9.65,0.77
		c3.61,0.63,7.15,1.48,10.64,2.63c3.88,1.28,7.69,2.77,11.43,4.47c0.71,0.32,1.38,0.76,2.08,1.12c4.03,2.12,8.17,3.95,12.65,4.64
		c2.42,0.38,4.85,0.55,7.32,0.4c9.75-0.61,18.14-4.71,25.67-11.05c3.43-2.89,6.46-6.23,9.14-9.9c0.36-0.49,0.73-0.96,1.1-1.43
		C463.46,243.59,463.57,243.65,463.67,243.71z"/>
	<path class="st0" d="M185.09,608.18c0.06,0.77,0.11,1.46,0.17,2.15c0.05,0.69,0.1,1.39,0.16,2.08c0.06,0.63,0.05,1.28,0.22,1.88
		c0.51,1.81,1.58,3.03,3.3,3.72c4.86,1.95,9.7,3.97,14.55,5.97c15.54,6.4,31.08,12.8,46.62,19.2c9.19,3.78,18.38,7.56,27.57,11.35
		c0.06,0.02,0.11,0.04,0.17,0.07c3.58,1.73,3.72,1.3,6.77,0.84c8.05-1.2,16.09-2.46,24.13-3.71c7.04-1.09,14.07-2.21,21.11-3.29
		c4.49-0.7,8.99-1.35,13.49-2.04c4.49-0.69,8.99-1.4,13.48-2.12c1.18-0.19,2.37-0.37,3.52-0.71c2.75-0.8,4.04-2.71,4.01-5.72
		c-0.01-1.39-0.07-2.79,0.05-4.18c0.2-2.38,1-4.57,2.32-6.5c2.93-4.26,8.02-5.77,12.85-2.47c2.17,1.48,3.72,3.55,4.81,6.01
		c0.28,0.63,0.52,1.28,0.77,1.92c0.59,1.49,1.64,2.47,3.02,3.08c1.54,0.67,3.09,0.81,4.73,0.31c7.87-2.38,15.76-4.71,23.63-7.09
		c3.12-0.94,4.84-3.38,4.95-6.84c0.14-4.18,0.28-8.36,0.44-12.54c0.03-0.88,0.15-1.75,0.25-2.76c1.07,0.06,2.07,0.06,3.06,0.18
		c2.34,0.29,4.66,0.04,6.96-0.32c7.85-1.22,15.13-4.15,21.95-8.4c0.31-0.19,0.62-0.38,0.93-0.57c0.1-0.06,0.22-0.1,0.37-0.16
		c3.29,1.22,6.63,2.37,9.92,3.7c3.25,1.31,6.33,3.01,9.1,5.28c1.38,1.13,2.63,2.4,3.64,3.91c1.39,2.08,1.86,4.38,1.46,6.86
		c-0.23,1.45-0.77,2.79-1.45,4.07c-1.13,2.11-2.56,3.98-4.14,5.72c-3.69,4.04-7.97,7.28-12.45,10.23
		c-7.45,4.89-15.37,8.75-23.49,12.18c-11.9,5.02-24.15,8.91-36.58,12.16c-7.84,2.05-15.73,3.79-23.68,5.26
		c-6.89,1.28-13.8,2.41-20.76,3.21c-3.86,0.44-7.72,0.92-11.59,1.31c-2.68,0.27-5.36,0.45-8.05,0.63c-3.22,0.22-6.44,0.41-9.67,0.59
		c-1.25,0.07-2.51,0.1-3.77,0.1c-4.61,0.01-9.22,0.12-13.82-0.04c-2.2-0.08-4.41-0.29-6.62-0.24c-2.87,0.06-5.74,0.22-8.61,0.22
		c-3.29-0.01-6.58-0.11-9.86-0.25c-3.52-0.14-7.05-0.33-10.57-0.58c-5.91-0.41-11.8-1.01-17.68-1.71
		c-13.5-1.62-26.86-4.03-40.11-7.19c-9.92-2.36-19.72-5.17-29.37-8.55c-10.63-3.72-21.02-8.06-30.9-13.68
		c-4.65-2.64-9.12-5.56-13.28-9.01c-2.84-2.35-5.47-4.93-7.66-7.98c-1.05-1.47-1.95-3.04-2.55-4.78c-1.19-3.45-0.71-6.59,1.46-9.46
		c1.56-2.06,3.52-3.6,5.61-4.98c3.16-2.09,6.59-3.58,10.1-4.87c1.02-0.37,2.05-0.71,3.07-1.07c0.67-0.24,1.26-0.13,1.87,0.29
		c2.22,1.5,4.57,2.76,6.97,3.91c4.54,2.19,9.25,3.81,14.15,4.74c2.76,0.53,5.56,0.82,8.38,0.61
		C184.65,608.08,184.77,608.13,185.09,608.18z M258.11,656.35c1.91,0,3.83,0.01,5.74-0.01c0.54,0,1.08-0.04,1.6-0.15
		c0.17-0.03,0.39-0.34,0.4-0.54c0.01-0.2-0.17-0.51-0.34-0.58c-0.38-0.17-0.8-0.24-1.2-0.32c-2.29-0.43-4.6-0.8-6.88-1.28
		c-6.21-1.31-12.41-2.7-18.62-4.01c-11.2-2.36-22.29-5.18-33.2-8.77c-6.67-2.19-13.35-4.35-19.77-7.34
		c-6.29-2.93-12.1-6.63-17.35-11.3c-2.35-2.09-4.27-4.6-5.58-7.59c-1.15-2.61-2.03-5.28-1.92-8.22c0-0.13,0-0.25-0.02-0.38
		c-0.06-0.54-0.28-0.82-0.78-0.88c-3-0.36-5.61,0.6-7.58,2.99c-1.65,2-2.17,4.47-1.76,7.13c0.41,2.66,1.7,4.84,3.31,6.85
		c2.08,2.58,4.61,4.61,7.24,6.48c3.78,2.69,7.78,4.97,11.89,7.03c8.66,4.35,17.64,7.8,26.81,10.7c6.65,2.1,13.38,3.8,20.17,5.3
		c6.09,1.34,12.19,2.57,18.35,3.43C245.09,655.79,251.59,656.28,258.11,656.35z M462.86,614.32c0.01-1.89-0.21-3-1.09-4.54
		c-1.71-3.02-4.25-4.93-7.41-5.91c-0.72-0.22-1.56-0.22-2.3-0.08c-1.5,0.29-2.06,1.28-1.76,2.88c0.26,1.37,0.45,2.73,0.39,4.14
		c-0.1,2.55-1.11,4.77-2.21,6.96c-1.65,3.3-4.06,5.94-6.64,8.42c-3.76,3.62-8.06,6.32-12.72,8.41c-3.19,1.43-6.37,2.89-9.62,4.17
		c-5.77,2.27-11.58,4.4-17.37,6.6c-0.39,0.15-0.79,0.32-1.13,0.56c-0.16,0.11-0.29,0.45-0.25,0.64c0.04,0.2,0.27,0.45,0.46,0.5
		c0.34,0.09,0.71,0.07,1.06,0.04c0.65-0.06,1.3-0.18,1.96-0.24c4.35-0.38,8.67-1.05,12.92-2.11c9.57-2.38,18.83-5.69,27.59-10.48
		c4.42-2.42,8.64-5.17,12.32-8.76c1.68-1.64,3.16-3.47,4.29-5.58C462.3,618.19,462.91,616.35,462.86,614.32z"/>
	<path class="st1" d="M392.71,625.26c-1.24-2.3-2.53-4.27-4.14-5.99c-2.8-2.99-6.07-5.14-9.97-6.1c-7.02-1.73-13.03,0.36-18.01,5.74
		c-3.47,3.75-5.27,8.4-5.91,13.58c-0.06,0.44-0.11,0.88-0.19,1.32c-0.02,0.12-0.12,0.22-0.25,0.46
		c-22.85,3.53-45.79,7.07-68.81,10.62c-0.07-0.46-0.18-0.82-0.18-1.18c-0.08-5.01-0.17-10.02-0.23-15.03
		c-0.05-3.99,0.06-7.99-0.28-11.98c-0.02-0.19,0-0.38,0-0.57c-0.05-7.55-0.09-15.1-0.14-22.65c-0.01-1.2-0.11-2.41-0.15-3.61
		c-0.02-0.75,0-1.51,0-2.3c0.7-0.35,1.35-0.66,1.99-1c4.12-2.21,7.43-5.3,9.45-9.78c2.9-6.43,1.43-14.01-4.34-18.48
		c-1.66-1.29-3.47-2.23-5.43-2.87c-0.63-0.21-1.26-0.38-1.93-0.58c-0.44-0.96-0.21-1.99-0.23-2.98c-0.02-1-0.11-2.02,0.13-3.13
		c0.59-0.15,1.15-0.35,1.72-0.44c6.03-0.92,12.07-1.83,18.11-2.72c0.41-0.06,0.83-0.01,1.24-0.01c0.41,0.48,0.33,1.08,0.39,1.63
		c0.37,3.52,1.36,6.82,3.2,9.79c2.07,3.34,4.84,5.76,8.52,6.88c4.34,1.31,8.41,0.49,12.25-1.83c3.96-2.39,6.84-5.9,8.99-10.12
		c1.78-3.5,2.88-7.23,3.23-11.2c0.02-0.19,0.08-0.37,0.14-0.63c0.76-0.49,1.68-0.49,2.54-0.62c4.73-0.74,9.46-1.45,14.19-2.16
		c2.96-0.44,5.92-0.85,8.88-1.3c3.85-0.58,7.69-1.19,11.53-1.77c4.44-0.67,8.88-1.31,13.31-1.98c4.08-0.61,8.16-1.26,12.24-1.87
		c3.37-0.51,6.74-0.98,10.23-1.49c0.07,0.39,0.19,0.73,0.18,1.07c-0.13,4.37-0.28,8.74-0.42,13.11c-0.14,4.24-0.26,8.49-0.42,12.73
		c-0.13,3.42-0.32,6.83-0.47,10.25c-0.06,1.33-0.06,2.66-0.1,3.99c-0.16,5.2-0.33,10.39-0.5,15.59c-0.07,2.22-0.15,4.43-0.23,6.65
		c-0.16,4.37-0.33,8.74-0.48,13.11c-0.11,3.1-0.17,6.21-0.29,9.31c-0.06,1.58-0.2,3.15-0.32,4.84c-3.12,1.07-6.29,1.94-9.45,2.87
		C399.16,623.4,396.03,624.44,392.71,625.26z M297.82,607.73c-0.11,1.88,0.21,3.86,0.78,5.82c2.82,9.59,12.25,15.49,21.81,13.29
		c5.6-1.29,9.95-4.56,12.89-9.78c4.07-7.21,3.64-16.18-1.35-22.63c-4.68-6.05-10.83-8.39-18.08-7.06
		C303.54,589.26,297.51,599.08,297.82,607.73z M384.27,543.98c-4.44,0.02-8.21,1.66-10.83,4.34c-5.77,5.9-6.54,15.71-1.21,22.82
		c2.95,3.93,6.85,6.12,11.61,6.21c8.57,0.16,15.41-7.19,15.2-16.96c-0.07-3.41-1.13-6.59-3.05-9.39
		C392.91,546.5,388.72,544.2,384.27,543.98z M396.18,607.3c0.77-0.1,1.55-0.14,2.31-0.3c6.81-1.5,11.26-9.65,9.2-16.76
		c-1.73-5.97-7.52-9.05-12.96-7.05c-6.25,2.3-9.98,9.97-7.94,16.62C388.17,604.32,391.91,607.3,396.18,607.3z"/>
	<path class="st1" d="M236.31,528.57c1.81,0.59,40.42,18.49,41.7,19.35c0.11,1.86,0.3,3.8,0.08,5.86c-0.44,0.06-0.84,0.13-1.24,0.15
		c-3.84,0.25-7.42,1.37-10.54,3.81c-3.67,2.87-5.59,6.71-5.4,11.6c0.1,2.45,0.85,4.72,2.01,6.83c1.53,2.79,3.59,5.06,6.04,6.94
		c2.25,1.72,4.67,3.06,7.3,3.99c0.73,0.26,1.46,0.54,2.15,0.79c0.07,0.18,0.15,0.29,0.15,0.41c0.1,2.85,0.23,5.7,0.26,8.55
		c0.08,6.79-0.03,13.58,0.19,20.36c0.18,5.83,0.21,11.66,0.25,17.5c0.02,2.53,0.14,5.07,0.21,7.6c0.01,0.5-0.04,1-0.06,1.48
		c-0.54,0.38-0.97,0.02-1.38-0.15c-5.24-2.14-10.48-4.3-15.71-6.46c-14.09-5.81-28.18-11.62-42.27-17.43
		c-7.74-3.19-15.49-6.37-23.23-9.57c-0.61-0.25-1.19-0.56-1.84-0.87c-0.86-19.28-1.71-38.51-2.56-57.77
		c0.28-0.21,0.52-0.4,0.77-0.56c4.69-2.98,7.49-7.37,8.57-13c1.01-5.28,0.14-10.23-2.69-14.71c-2.02-3.2-4.76-5.48-8.24-6.7
		c-0.45-0.16-0.89-0.33-1.41-0.53c-0.42-1.47-0.15-3-0.2-4.49c-0.05-1.52-0.01-3.04-0.01-4.59c0.58-0.32,1.02,0.14,1.47,0.34
		c4.12,1.88,8.22,3.79,12.33,5.69c2.63,1.22,5.26,2.43,7.89,3.65c0.54,0.25,1.08,0.53,1.59,0.78c0.1,1.59,0.13,3.11,0.32,4.61
		c0.65,5.13,2.57,9.6,6.25,13.12c1.03,0.98,2.2,1.76,3.49,2.29c3.73,1.54,7.75,0.84,10.65-2.55c1.18-1.38,2.01-2.98,2.59-4.74
		C235.96,529.62,236.14,529.09,236.31,528.57z M239.2,590.32c-2.44-0.08-3.99,0.15-6.28,1.24c-4.17,1.97-6.74,5.32-7.59,10.12
		c-0.59,3.33,0.08,6.45,1.52,9.38c2.27,4.6,5.85,7.66,10.42,9.37c3.34,1.25,6.82,1.46,10.24,0.43c4.47-1.35,7.7-4.27,9.15-9.08
		c1.02-3.41,0.67-6.75-0.63-10.02C252.96,594.07,244.93,589.87,239.2,590.32z"/>
	<path class="st0" d="M148.51,589.25c-0.83,0.32-1.5,0.59-2.17,0.84c-4.42,1.63-8.65,3.68-12.58,6.4c-2.52,1.74-4.81,3.77-6.73,6.24
		c-1.85,2.38-3.23,5.03-3.95,8.03c-1.06,4.41-0.56,8.68,1.12,12.83c1.56,3.84,3.87,7.14,6.56,10.15c3.52,3.93,7.54,7.23,11.79,10.21
		c7.51,5.26,15.55,9.46,23.83,13.15c11.09,4.95,22.51,8.89,34.12,12.22c0.58,0.16,1.15,0.34,1.69,0.51c0.22,0.4-0.01,0.61-0.24,0.82
		c-2.23,1.99-4.77,3.37-7.51,4.35c-4.42,1.58-8.98,2.04-13.62,1.91c-7.61-0.21-14.93-2-22.02-4.82c-2.63-1.04-5.2-2.24-7.75-3.5
		c-2.11-1.04-4.17-2.2-6.19-3.42c-7.16-4.33-13.69-9.54-19.54-15.7c-4.73-4.98-8.89-10.46-12.16-16.65
		c-2.3-4.34-4.09-8.89-4.99-13.79c-0.74-4.03-0.85-8.06,0.21-12.05c1.21-4.59,3.76-8.16,7.49-10.79c2.16-1.53,4.52-2.58,6.99-3.38
		c0.91-0.3,1.83-0.6,2.76-0.81c1.4-0.32,2.14-1.22,2.44-2.68c0.57-2.79,1.38-5.5,2.47-8.13c1.9-4.58,4.35-8.74,7.78-12.21
		c2.74-2.77,5.87-4.76,9.6-5.64c1.79-0.42,3.57-0.28,5.36-0.15c2.38,0.17,4.77,0.41,7.14,0.67c1.48,0.16,2.96,0.41,4.44,0.62
		c0.71,0.1,1.42,0.23,2.13,0.32c4.1,0.49,8.19,0.99,12.29,1.46c1.25,0.14,2.5,0.19,3.8,0.28c0.09,0.25,0.22,0.48,0.24,0.71
		c0.15,2.78,0.29,5.57,0.42,8.35c0.2,4.18,0.39,8.35,0.58,12.53c0.08,1.84,0.15,3.67,0.22,5.51c0.05,1.26,0.09,2.53,0.14,3.93
		c-0.36,0.08-0.74,0.22-1.13,0.24c-3.75,0.14-7.38-0.65-10.94-1.8c-7.44-2.39-14.12-6.21-19.81-11.89c-2.05-2.04-4.06-4.13-6.1-6.18
		c-0.43-0.43-0.91-0.8-1.4-1.16c-0.23-0.17-0.67,0.08-0.7,0.37c-0.04,0.37-0.1,0.77-0.03,1.13c0.25,1.3,0.47,2.62,0.86,3.88
		c0.63,2.05,1.45,4.02,2.46,5.91C148.08,588.38,148.24,588.71,148.51,589.25z"/>
	<path class="st0" d="M461.28,588.48c0.15-0.31,0.32-0.69,0.52-1.06c1.4-2.6,2.54-5.31,3.23-8.22c0.2-0.86,0.33-1.74,0.42-2.62
		c0.03-0.27-0.13-0.64-0.33-0.82c-0.32-0.3-0.69-0.06-0.96,0.19c-0.41,0.37-0.79,0.77-1.17,1.18c-2.26,2.45-4.63,4.77-7.05,7.04
		c-6.63,6.19-14.38,9.93-22.94,11.9c-2.74,0.63-5.55,0.98-8.37,0.52c-0.59-0.1-1.19-0.09-1.88-0.13c-0.08-0.35-0.22-0.7-0.22-1.05
		c0.02-1.96,0.07-3.93,0.14-5.89c0.07-1.84,0.19-3.67,0.25-5.5c0.16-4.88,0.29-9.75,0.46-14.63c0.04-1.13,0.16-2.27,0.24-3.51
		c0.96-0.19,1.85-0.47,2.8-0.52c1.91-0.1,3.82-0.18,5.72-0.39c4.1-0.46,8.21-0.85,12.28-1.53c4.44-0.74,8.91-0.98,13.37-1.45
		c3.72-0.39,7.09,0.8,10.2,2.88c3.67,2.45,6.43,5.84,8.71,9.7c1.53,2.59,2.71,5.36,3.73,8.21c0.19,0.53,0.38,1.07,0.52,1.62
		c0.26,0.98,0.5,1.96,0.73,2.94c0.68,2.92,0.78,3.05,3.54,3.82c2.14,0.6,4.24,1.33,6.24,2.36c1.95,1,3.75,2.25,5.31,3.85
		c3.59,3.66,5.29,8.21,5.52,13.42c0.19,4.5-0.62,8.82-2.06,13.04c-2.05,6.03-5.12,11.45-8.83,16.46
		c-7.41,10.01-16.51,17.94-26.94,24.17c-5.27,3.15-10.75,5.81-16.52,7.76c-4.68,1.58-9.44,2.76-14.34,3.29
		c-3.17,0.34-6.33,0.44-9.49,0.19c-4.45-0.34-8.74-1.38-12.7-3.69c-0.47-0.27-0.93-0.57-1.38-0.88c-0.25-0.17-0.47-0.38-0.75-0.6
		c0.28-0.68,0.91-0.61,1.36-0.75c3.84-1.2,7.71-2.29,11.54-3.53c10.7-3.46,21.18-7.55,31.29-12.65c6.27-3.16,12.35-6.68,18.04-10.92
		c4.17-3.11,8.07-6.56,11.39-10.69c1.99-2.47,3.71-5.15,4.89-8.16c3.14-8.01,1.88-15.26-3.51-21.71c-2.61-3.12-5.8-5.47-9.24-7.44
		c-3.85-2.2-7.89-3.94-12.07-5.31c-0.51-0.17-1.01-0.38-1.51-0.58C461.41,588.74,461.39,588.66,461.28,588.48z"/>
	<path class="st0" d="M362.87,382.94c0.15,1.72-0.18,3.21-0.39,4.7c-2.11,15-6.5,29.21-13.26,42.57
		c-4.12,8.14-9.03,15.7-15.02,22.43c-4.13,4.64-8.67,8.74-13.87,11.97c-3.63,2.25-7.45,4-11.61,4.9c-6.09,1.31-11.99,0.81-17.74-1.8
		c-4.83-2.2-9.18-5.17-13.19-8.74c-5.58-4.97-10.32-10.75-14.47-17.07c-6.96-10.6-12.08-22.14-15.7-34.45
		c-1.85-6.31-3.22-12.73-4.18-19.25c-0.18-1.24-0.28-2.49-0.4-3.66c0.16-0.14,0.2-0.18,0.25-0.22c0.05-0.04,0.1-0.09,0.15-0.1
		c3.43-0.41,6.87-0.82,10.39-1.25c0.11,0.36,0.26,0.69,0.33,1.05c1.26,6.13,2.7,12.22,4.55,18.18c2.45,7.91,5.45,15.57,9.39,22.79
		c2.43,4.46,5.17,8.69,8.43,12.52c3.56,4.17,7.51,7.81,12.26,10.41c3.38,1.85,6.96,3.1,10.74,3.49c4.59,0.47,9.06-0.22,13.36-2.06
		c4.33-1.85,8.13-4.55,11.57-7.86c4.51-4.35,8.14-9.44,11.32-14.92c2.42-4.17,4.53-8.51,6.34-13c2.25-5.6,4.16-11.34,5.73-17.2
		c1.21-4.51,2.24-9.07,3.17-13.66c0.12-0.61,0.28-1.22,0.45-1.94c0.42,0.06,0.76,0.09,1.08,0.17c3.03,0.72,6.08,1.36,9.18,1.71
		C362.07,382.7,362.41,382.82,362.87,382.94z"/>
	<path class="st0" d="M332.48,403.13c0.01,3.58-0.59,6.49-1.26,9.39c-0.55,2.36-1.45,4.55-2.6,6.65c-2.54,4.62-5.37,9-8.9,12.85
		c-2.61,2.83-5.47,5.3-8.85,7.04c-5.77,2.96-11.52,2.94-17.26-0.09c-2.76-1.45-5.18-3.4-7.4-5.65c-3.58-3.62-6.41-7.84-9.06-12.24
		c-2.02-3.35-3.01-7.01-3.56-10.86c-0.32-2.23-0.02-4.44,0.5-6.6c2.89-12.03,10.06-19.9,21.03-23.95c3.88-1.43,7.94-1.93,12.03-1.51
		c9.5,0.99,17.03,5.54,22.14,14.24c1.36,2.32,2.46,4.8,2.88,7.53C332.35,401.17,332.41,402.44,332.48,403.13z"/>
	<path class="st1" d="M299.85,539.97c-1.2,0.23-2,0.4-2.81,0.52c-4.56,0.68-9.12,1.31-13.67,2.05c-1.13,0.18-2.09,0.02-3.11-0.45
		c-6.95-3.25-13.91-6.46-20.86-9.68c-5.04-2.33-10.08-4.66-15.12-7c-0.48-0.22-0.95-0.48-1.39-0.71c-0.01-0.65,0.47-0.79,0.75-1.07
		c3.18-3.19,2.87-7.2-0.77-9.77c-1.15-0.82-2.43-1.37-3.76-1.76c-2.54-0.75-5.14-1.19-7.79-1.17c-2.63,0.01-5.26-0.07-7.88,0.36
		c-2.12,0.35-4.27,0.57-6.29,1.6c-4.38-2.05-8.75-4.09-13.12-6.14c-0.08-0.04-0.1-0.2-0.18-0.38c0.44,0,0.85-0.04,1.26,0.01
		c14.1,1.42,28.19,2.85,42.36,4.28c0.31,0.56,0.6,1.1,0.9,1.64c2.07,3.72,4.69,6.88,8.26,9.07c4.31,2.65,8.9,3.49,13.82,2.63
		c5.22-0.91,9.71-3.45,13.83-6.83c0.61-0.5,1.24-1.01,1.77-1.6c0.64-0.7,1.33-0.96,2.25-0.85c1.84,0.23,3.69,0.37,5.53,0.55
		c1.9,0.19,3.81,0.41,5.71,0.61c3.51,0.36,7.02,0.71,10.53,1.07c2.56,0.26,5.12,0.5,7.68,0.76c3.81,0.38,7.62,0.76,11.42,1.14
		c5.12,0.51,10.23,1.03,15.35,1.55c5.06,0.51,10.12,1.01,15.17,1.52c5.06,0.51,10.11,1.02,15.17,1.53
		c5.06,0.51,10.11,1.02,15.17,1.52c1.65,0.16,3.3,0.32,4.95,0.72c-1.7,0.27-3.4,0.56-5.1,0.81c-4.67,0.71-9.35,1.41-14.02,2.11
		c-4.73,0.71-9.47,1.42-14.2,2.14c-5.5,0.83-11,1.67-16.5,2.5c-0.47,0.07-0.98,0.03-1.42,0.19c-1.74,0.62-3.2-0.04-4.76-0.83
		c-5.68-2.89-11.66-4.89-17.79-6.4c-4.32-1.06-8.68-1.79-13.11-2.05c-2.63-0.16-5.27-0.07-7.86,0.52c-1.53,0.34-3,0.87-4.27,1.89
		c-2.2,1.76-2.86,4.42-1.74,7.11c0.74,1.79,2.01,3.13,3.37,4.39C298.23,538.6,298.89,539.14,299.85,539.97z"/>
	<path class="st1" d="M299.66,531.35c1.18-0.76,2.37-0.87,3.54-1.01c2.69-0.32,5.35-0.05,8.03,0.25c5.31,0.6,10.47,1.88,15.55,3.55
		c1.59,0.52,3.15,1.19,4.69,1.87c1.22,0.54,2.32,1.3,3.29,2.27c0.94,0.95,1.28,2.04,1.04,3.43c-0.76,4.48-2.49,8.44-5.38,11.81
		c-1.51,1.75-3.26,3.15-5.36,4.03c-1.83,0.77-3.7,0.98-5.63,0.59c-1.57-0.32-2.9-1.12-4.07-2.26c-2.1-2.06-3.19-4.69-3.81-7.59
		c-0.41-1.93-0.37-3.9-0.45-5.86c-0.01-0.32,0-0.63-0.01-0.95c-0.03-1.39-0.66-2.4-1.78-3.08c-0.47-0.28-0.96-0.51-1.44-0.76
		c-1.93-1-3.82-2.1-5.55-3.47C301.37,533.42,300.38,532.69,299.66,531.35z"/>
	<path class="st1" d="M278.37,559.99c3.14,0.16,6.11,1.01,8.86,2.64c1.16,0.69,2.14,1.61,2.9,2.78c1.51,2.3,1.72,4.79,1.02,7.42
		c-0.45,1.68-1.32,3.11-2.4,4.4c-1.57,1.87-3.51,3.22-5.61,4.33c-0.99,0.53-2.07,0.67-3.14,0.36c-3.98-1.17-7.56-3.1-10.38-6.39
		c-1.22-1.42-2.14-3.02-2.66-4.89c-0.74-2.7-0.05-5,1.7-6.99c1.04-1.17,2.33-1.96,3.75-2.52
		C274.33,560.38,276.3,559.94,278.37,559.99z"/>
	<path class="st0" d="M198.52,684.4c6.17-2.55,11.03-6.21,14.71-11.67c4.85,1.07,9.68,2.14,14.48,3.2c0.31,0.47,0.03,0.77-0.18,1.06
		c-2.06,2.82-4.64,4.91-7.71,6.35c-3.1,1.46-6.38,2.11-9.74,2.3c-3.54,0.2-7.05-0.14-10.53-0.81
		C199.32,684.79,199.12,684.66,198.52,684.4z"/>
	<path class="st1" d="M239.65,519.06c-0.79,0.91-1.77,1.25-2.68,1.71c-1.02,0.51-2.06,0.99-3.08,1.52
		c-0.48,0.25-0.93,0.57-1.37,0.89c-0.93,0.67-1.47,1.59-1.69,2.79c-0.16,0.92-0.43,1.84-0.75,2.72c-0.23,0.64-0.57,1.26-0.97,1.8
		c-1.16,1.58-2.74,2.02-4.46,1.23c-0.65-0.3-1.27-0.72-1.8-1.22c-2.58-2.42-3.85-5.59-4.3-9.13c-0.25-1.93,0.45-3.05,2.23-3.53
		c1.84-0.5,3.73-0.87,5.61-1.09c1.71-0.2,3.45-0.14,5.18-0.17c1.74-0.02,3.44,0.35,5.11,0.84
		C237.71,517.71,238.73,518.13,239.65,519.06z"/>
	<path class="st0" d="M397.66,673.25c1.34,1.38,2.63,2.78,4,4.09c1.38,1.32,2.91,2.43,4.55,3.36c1.61,0.91,3.25,1.74,4.94,2.64
		c-0.34,0.52-0.8,0.36-1.17,0.46c-0.35,0.1-0.7,0.17-1.05,0.23c-4.28,0.66-8.57,0.85-12.84,0.08c-4.38-0.79-8.36-2.56-11.63-5.86
		c-0.47-0.47-0.89-1-1.42-1.59c0.27-0.19,0.43-0.39,0.63-0.43c4.5-0.99,9-1.96,13.5-2.93C397.32,673.26,397.5,673.26,397.66,673.25z
		"/>
	<path d="M270.3,479.47c-0.05,8.01-4.99,14.8-11.8,16.73c-5.79,1.64-10.91,0.16-15.25-4.14c-3.54-3.52-5.27-8-5.17-13.12
		c0.16-8.25,5.3-14.69,12.04-16.53c5.18-1.41,9.84-0.18,13.98,3.28C268.32,469.21,270.29,474.61,270.3,479.47z M260.54,479.12
		c-0.07-1.99-0.84-3.94-2.5-5.39c-2.78-2.43-6.17-1.81-8.27,0.38c-2.48,2.6-2.65,7.62,0.17,10.45c1.77,1.78,3.88,2.43,6.28,1.58
		C258.81,485.23,260.56,482.48,260.54,479.12z"/>
	<path d="M355.37,461.38c8.32,0.34,14.39,6.52,15.76,14.18c1.19,6.63-0.6,12.35-5.42,16.78c-7.01,6.44-16.88,4.92-22.44-2.03
		c-2.74-3.43-4.15-7.45-3.99-11.91c0.34-9.82,7.21-16.48,15.32-16.98C354.9,461.4,355.2,461.38,355.37,461.38z M355.46,486.01
		c1.84,0.04,3.32-0.69,4.51-2.06c2.9-3.33,2.16-8.89-1.5-11.22c-2.19-1.39-4.42-1.36-6.58,0.13c-1.66,1.15-2.52,2.86-2.79,4.88
		C348.48,482.37,351.91,486.21,355.46,486.01z"/>
	<path d="M258.11,656.35c-6.52-0.07-13.02-0.56-19.49-1.46c-6.17-0.86-12.27-2.09-18.35-3.43c-6.79-1.5-13.53-3.2-20.17-5.3
		c-9.17-2.9-18.15-6.35-26.81-10.7c-4.11-2.06-8.11-4.34-11.89-7.03c-2.63-1.88-5.16-3.9-7.24-6.48c-1.61-2-2.9-4.18-3.31-6.85
		c-0.41-2.66,0.11-5.13,1.76-7.13c1.96-2.39,4.58-3.35,7.58-2.99c0.49,0.06,0.71,0.35,0.78,0.88c0.02,0.13,0.02,0.25,0.02,0.38
		c-0.11,2.94,0.77,5.61,1.92,8.22c1.31,2.99,3.23,5.5,5.58,7.59c5.25,4.67,11.06,8.36,17.35,11.3c6.42,2.99,13.1,5.15,19.77,7.34
		c10.91,3.59,22,6.41,33.2,8.77c6.21,1.31,12.41,2.7,18.62,4.01c2.28,0.48,4.59,0.85,6.88,1.28c0.41,0.08,0.83,0.15,1.2,0.32
		c0.17,0.08,0.35,0.39,0.34,0.58c-0.01,0.19-0.23,0.5-0.4,0.54c-0.52,0.11-1.07,0.14-1.6,0.15
		C261.94,656.36,260.03,656.35,258.11,656.35z"/>
	<path d="M462.86,614.32c0.05,2.03-0.56,3.87-1.49,5.6c-1.13,2.11-2.61,3.94-4.29,5.58c-3.68,3.59-7.9,6.34-12.32,8.76
		c-8.76,4.79-18.02,8.1-27.59,10.48c-4.25,1.06-8.56,1.73-12.92,2.11c-0.65,0.06-1.3,0.18-1.96,0.24c-0.35,0.03-0.73,0.05-1.06-0.04
		c-0.19-0.05-0.42-0.3-0.46-0.5c-0.04-0.2,0.09-0.53,0.25-0.64c0.34-0.24,0.74-0.41,1.13-0.56c5.79-2.2,11.6-4.33,17.37-6.6
		c3.25-1.28,6.43-2.74,9.62-4.17c4.66-2.09,8.96-4.79,12.72-8.41c2.58-2.48,4.99-5.11,6.64-8.42c1.1-2.19,2.1-4.41,2.21-6.96
		c0.06-1.41-0.14-2.77-0.39-4.14c-0.3-1.6,0.26-2.59,1.76-2.88c0.74-0.14,1.58-0.14,2.3,0.08c3.16,0.97,5.7,2.88,7.41,5.91
		C462.65,611.33,462.87,612.43,462.86,614.32z"/>
	<path d="M297.82,607.73c-0.31-8.64,5.72-18.47,16.06-20.36c7.25-1.33,13.4,1.01,18.08,7.06c4.99,6.45,5.42,15.42,1.35,22.63
		c-2.95,5.22-7.29,8.49-12.89,9.78c-9.57,2.2-18.99-3.7-21.81-13.29C298.03,611.59,297.71,609.6,297.82,607.73z M317.28,593.1
		c-5.65,0.09-11.33,3.82-13.15,10.42c-1.5,5.45-0.35,10.34,3.69,14.18c3,2.86,6.58,3.88,10.63,3.29c5.59-0.82,11.46-5.8,11.79-13.75
		C330.55,599.48,324.92,593.21,317.28,593.1z"/>
	<path d="M384.27,543.98c4.45,0.22,8.64,2.52,11.73,7.02c1.92,2.8,2.97,5.98,3.05,9.39c0.21,9.77-6.64,17.13-15.2,16.96
		c-4.76-0.09-8.66-2.28-11.61-6.21c-5.33-7.11-4.56-16.92,1.21-22.82C376.06,545.64,379.83,544,384.27,543.98z M374.38,560.34
		c0.16,3.07,1.08,5.77,3.14,7.91c2.11,2.19,4.66,3.34,7.64,2.92c4.75-0.67,8.3-5.04,8.14-10.19c-0.11-3.64-1.47-6.78-4.36-8.94
		c-3.51-2.63-7.52-2.58-10.81,0.09C375.58,554.19,374.54,557.09,374.38,560.34z"/>
	<path d="M396.18,607.3c-4.27,0-8.01-2.98-9.4-7.5c-2.04-6.65,1.69-14.32,7.94-16.62c5.44-2,11.23,1.08,12.96,7.05
		c2.06,7.11-2.39,15.27-9.2,16.76C397.73,607.16,396.95,607.2,396.18,607.3z M396.36,601.09c0.7,0.09,1.44-0.14,2.14-0.51
		c2.74-1.41,3.97-4.5,3.92-6.96c-0.02-1.03-0.28-2.01-0.81-2.88c-0.94-1.52-2.26-2.18-3.97-1.99c-1.31,0.14-2.42,0.74-3.32,1.7
		c-2,2.13-2.85,4.65-1.96,7.62C392.95,600.02,394.37,601.07,396.36,601.09z"/>
	<path d="M239.2,590.32c5.73-0.45,13.76,3.75,16.82,11.44c1.3,3.27,1.65,6.61,0.63,10.02c-1.45,4.81-4.68,7.73-9.15,9.08
		c-3.42,1.03-6.89,0.82-10.24-0.43c-4.57-1.71-8.15-4.77-10.42-9.37c-1.44-2.93-2.1-6.05-1.52-9.38c0.84-4.8,3.42-8.15,7.59-10.12
		C235.22,590.48,236.76,590.24,239.2,590.32z M239.18,596.42c-2.12-0.1-4.1,0.49-5.79,1.95c-1.85,1.6-2.66,3.75-2.47,6.22
		c0.12,1.64,0.67,3.21,1.56,4.6c2.04,3.21,4.88,5.21,8.43,5.93c2.38,0.48,4.75,0.33,6.97-0.96c1.73-1.01,2.79-2.53,3.34-4.5
		c0.47-1.71,0.23-3.38-0.34-5.02C249.06,599.35,243.44,596.15,239.18,596.42z"/>
	<path class="st0" d="M260.54,479.12c0.03,3.36-1.73,6.11-4.33,7.03c-2.39,0.85-4.51,0.19-6.28-1.58
		c-2.82-2.83-2.65-7.86-0.17-10.45c2.1-2.19,5.49-2.81,8.27-0.38C259.7,475.19,260.46,477.13,260.54,479.12z"/>
	<path class="st0" d="M355.46,486.01c-3.55,0.19-6.98-3.64-6.36-8.26c0.27-2.02,1.13-3.74,2.79-4.88c2.16-1.49,4.39-1.52,6.58-0.13
		c3.66,2.32,4.39,7.89,1.5,11.22C358.78,485.32,357.3,486.06,355.46,486.01z"/>
	<path class="st1" d="M317.28,593.1c7.64,0.12,13.27,6.38,12.95,14.14c-0.33,7.95-6.2,12.92-11.79,13.75
		c-4.05,0.6-7.63-0.43-10.63-3.29c-4.04-3.85-5.19-8.73-3.69-14.18C305.95,596.91,311.63,593.18,317.28,593.1z"/>
	<path class="st1" d="M374.38,560.34c0.16-3.26,1.2-6.15,3.74-8.22c3.29-2.67,7.3-2.72,10.81-0.09c2.89,2.17,4.25,5.31,4.36,8.94
		c0.16,5.15-3.39,9.51-8.14,10.19c-2.98,0.42-5.53-0.73-7.64-2.92C375.46,566.12,374.54,563.42,374.38,560.34z"/>
	<path class="st1" d="M396.36,601.09c-1.99-0.02-3.41-1.07-4-3.02c-0.89-2.97-0.04-5.48,1.96-7.62c0.9-0.96,2.01-1.56,3.32-1.7
		c1.71-0.19,3.03,0.48,3.97,1.99c0.54,0.87,0.79,1.85,0.81,2.88c0.05,2.46-1.18,5.54-3.92,6.96
		C397.8,600.94,397.06,601.17,396.36,601.09z"/>
	<path class="st1" d="M239.18,596.42c4.26-0.27,9.88,2.94,11.7,8.22c0.57,1.64,0.81,3.31,0.34,5.02c-0.54,1.96-1.61,3.49-3.34,4.5
		c-2.22,1.29-4.59,1.44-6.97,0.96c-3.55-0.72-6.39-2.72-8.43-5.93c-0.89-1.4-1.44-2.96-1.56-4.6c-0.19-2.47,0.62-4.61,2.47-6.22
		C235.09,596.9,237.06,596.32,239.18,596.42z"/>
</g>
</svg>
